<svg width="30" height="35" viewBox="0 0 30 35" fill="none" xmlns="http://www.w3.org/2000/svg">
<path fill-rule="evenodd" clip-rule="evenodd" d="M12.9102 0.0768271C9.28277 0.533125 6.14974 2.15561 3.99683 4.69288L3.46321 5.32178L4.65359 6.49517C5.88027 7.70441 6.10711 8.02182 6.05627 8.45769C6.03733 8.61954 5.99283 8.66259 5.82439 8.68139C5.34139 8.73553 5.00307 8.51084 3.77971 7.32324C2.83107 6.40237 2.59299 6.2049 2.53459 6.29049C2.2299 6.73753 1.41744 8.50978 1.15121 9.3083C0.46384 11.3698 0.0235482 14.123 0.0204516 16.3796L0.0197316 16.8921H1.36026C2.67386 16.8921 2.70778 16.8958 3.05107 17.0792C3.60514 17.3751 3.59168 17.6307 3.0083 17.8912C2.76273 18.0009 2.51947 18.02 1.36012 18.0214L0 18.0229L0.0508414 18.712C0.179242 20.4513 0.724601 22.6089 1.56493 24.702C1.83051 25.3634 2.75258 27.2395 3.00268 27.6273L3.20273 27.9374L4.36575 26.8038C5.52272 25.6761 5.74553 25.5067 6.19785 25.411C6.66378 25.3125 6.77057 25.6422 6.47186 26.2569C6.35016 26.5073 5.97389 26.928 5.18087 27.7004L4.06164 28.7906L4.45721 29.2907C6.65435 32.0686 9.17929 33.8611 11.9311 34.5969C12.5345 34.7582 13.8755 34.9813 14.2604 34.9844L14.4225 34.9857V33.692C14.4225 32.4448 14.4291 32.3853 14.6072 32.0343C14.8959 31.4657 15.1712 31.4718 15.4405 32.0525C15.5521 32.2935 15.5717 32.5322 15.5731 33.6676L15.5747 35L16.0968 34.9518C19.621 34.6267 22.7791 32.7564 25.4653 29.4034L25.9456 28.8039L24.8 27.6717C23.6207 26.5063 23.4612 26.297 23.3821 25.8116C23.3428 25.5703 23.3583 25.5166 23.4866 25.4491C23.6494 25.3636 23.9102 25.4038 24.2523 25.567C24.3711 25.6238 24.9938 26.1823 25.636 26.8083C26.2782 27.4343 26.8162 27.9321 26.8316 27.9145C27.0718 27.64 28.1596 25.5254 28.5704 24.5345C29.4034 22.525 29.9774 20.1147 29.9774 18.6264V18.3056L28.6631 18.3049C27.4297 18.3043 27.3262 18.2939 26.9797 18.1355C26.7765 18.0427 26.5881 17.9314 26.5609 17.8882C26.4598 17.7276 26.61 17.5323 26.9703 17.3561C27.3282 17.1811 27.3877 17.1748 28.6706 17.1748H30L29.952 15.9202C29.8193 12.449 29.182 9.60225 28.0257 7.31518C27.3633 6.00488 27.5723 6.00375 26.2132 7.32543C25.0178 8.48808 24.718 8.6934 24.2162 8.6934C23.9355 8.6934 23.8727 8.46123 24.0303 8.00599C24.127 7.72667 24.3524 7.46672 25.3394 6.49616L26.5318 5.32383L26.1052 4.79989C24.7503 3.13577 22.8626 1.79607 20.692 0.958254C19.3725 0.448877 17.176 0 16.0031 0H15.5747L15.5727 1.28988C15.5708 2.48737 15.559 2.60208 15.408 2.89165C15.1098 3.464 14.8754 3.46104 14.6005 2.88133C14.434 2.53042 14.4238 2.43705 14.4232 1.25454L14.4225 0L13.9004 0.00897611C13.6132 0.0139236 13.1676 0.0444565 12.9102 0.0768271ZM10.5214 10.8822C11.5876 11.1796 12.4206 11.7475 12.767 12.4131C12.9035 12.6754 12.9462 12.8667 12.9462 13.2168C12.9462 14.2739 12.0557 15.1225 10.4832 15.5641C9.67366 15.7914 8.21999 15.7899 7.40365 15.5608C6.32431 15.2581 5.43076 14.6376 5.09626 13.9589C4.90996 13.5809 4.90744 12.8568 5.09115 12.488C5.50818 11.6507 6.60718 10.9883 7.98876 10.7416C8.55795 10.6399 9.92506 10.7158 10.5214 10.8822ZM22.6197 10.8822C23.6859 11.1796 24.5189 11.7475 24.8653 12.4131C25.0018 12.6754 25.0445 12.8667 25.0445 13.2168C25.0445 14.2739 24.154 15.1225 22.5815 15.5641C21.7719 15.7914 20.3183 15.7899 19.5019 15.5608C18.4226 15.2581 17.529 14.6376 17.1945 13.9589C17.0082 13.5809 17.0057 12.8568 17.1894 12.488C17.6065 11.6507 18.7055 10.9883 20.087 10.7416C20.6562 10.6399 22.0233 10.7158 22.6197 10.8822ZM12.047 17.8474C12.1206 17.9344 12.1078 18.102 11.9792 18.7356C11.8017 19.6098 11.8219 19.8299 12.1035 20.0934C13.1194 21.0443 16.8821 21.0448 17.8936 20.0942C18.1753 19.8294 18.1954 19.6097 18.0179 18.7356C17.8503 17.9097 17.8756 17.7402 18.1672 17.7402C18.3708 17.7402 18.4315 17.8734 18.5984 18.6869C18.7845 19.5936 18.7549 19.938 18.4561 20.3429C17.6624 21.4182 14.2371 21.7303 12.3274 20.9012C11.7953 20.6702 11.4468 20.32 11.3254 19.894C11.2387 19.5903 11.2456 19.4702 11.3913 18.7362C11.4808 18.2857 11.5876 17.8773 11.6288 17.8287C11.7307 17.7081 11.937 17.7174 12.047 17.8474ZM16.7989 25.02C18.2848 25.3773 19.3162 26.2171 19.3162 27.0697C19.3162 27.9273 18.2841 28.7585 16.7546 29.1327C15.8171 29.362 14.1502 29.3593 13.2342 29.1269C11.6939 28.7361 10.6809 27.92 10.6809 27.0697C10.6809 26.4812 11.2927 25.7748 12.1439 25.3804C12.5667 25.1845 13.5273 24.9203 14.0624 24.8527C14.6388 24.7798 16.1959 24.875 16.7989 25.02Z" fill="white"/>
</svg>
