<svg width="28" height="28" viewBox="0 0 28 28" fill="none" xmlns="http://www.w3.org/2000/svg">
<path fill-rule="evenodd" clip-rule="evenodd" d="M20.0438 0.085195C19.583 0.285577 18.3882 2.16589 17.9743 3.3421C17.8949 3.56764 17.8188 3.78376 17.8052 3.82242C17.7856 3.87791 17.746 3.87491 17.6167 3.80809C16.6606 3.31416 14.7847 2.85003 13.7444 2.85003C13.4181 2.85003 13.0635 3.05227 12.9423 3.30749C12.7372 3.73926 12.9337 5.3567 13.3484 6.64991C14.1883 9.26937 16.0752 10.8682 19.034 11.4674C19.9772 11.6584 20.5203 11.6847 21.2581 11.5749C24.4449 11.1012 26.4982 9.53033 27.4313 6.8521C27.808 5.77102 28.1007 3.907 27.9649 3.45424C27.8858 3.19027 27.5876 2.92242 27.3157 2.87119C27.2022 2.84976 26.8341 2.86228 26.4976 2.89902C25.4226 3.01641 24.3368 3.30482 23.4787 3.70093C23.2537 3.80476 23.0654 3.88338 23.0602 3.87562C23.055 3.86785 22.9827 3.66468 22.8995 3.42412C22.5749 2.48568 22.0374 1.52051 21.3298 0.605587C20.8893 0.0359879 20.5099 -0.117538 20.0438 0.085195ZM0.348005 14.051C0.287805 14.0781 0.189297 14.1548 0.129098 14.2216C0.0213412 14.3413 0.0194258 14.4305 0.00519685 19.9095C-0.0078281 24.93 -0.000713633 25.4845 0.0775455 25.5627C0.152631 25.6377 0.372249 25.6493 1.71272 25.6493C3.16938 25.6493 3.26921 25.6429 3.39792 25.5418C3.47317 25.4827 3.56139 25.3658 3.59401 25.2821C3.62663 25.1984 4.23327 23.084 4.9422 20.5835C5.74499 17.7517 6.23069 15.9475 6.22992 15.7995C6.22828 15.4788 6.07072 15.1535 5.81405 14.9409C5.47945 14.6638 4.42284 14.3621 3.08434 14.1615C2.30602 14.0449 0.522583 13.9729 0.348005 14.051ZM7.95386 16.2863C7.93706 16.369 7.38668 18.3366 6.73083 20.6587L5.53839 24.8808L6.36362 25.2441C10.4052 27.0237 13.5256 28.0015 15.1586 28C16.8444 27.9985 20.2444 26.8513 23.7437 25.1035C26.0652 23.9438 27.7417 22.835 27.9564 22.3172C28.0513 22.0884 27.9894 21.7451 27.7905 21.3973C27.5156 20.9164 27.0067 20.6146 26.2337 20.474C25.2812 20.3009 24.2279 20.5655 21.6914 21.6151C18.0845 23.1077 17.3202 23.353 16.2759 23.353C15.3921 23.353 14.3769 23.0943 13.1865 22.5657C12.6187 22.3136 11.4127 21.6573 11.4495 21.6205C11.4602 21.6099 11.8358 21.6612 12.2841 21.7346C14.1057 22.0329 14.9158 22.1142 16.1093 22.1186C17.1495 22.1224 17.295 22.1113 17.6429 22.002C18.1167 21.8531 18.4452 21.5873 18.5749 21.248C18.7117 20.8902 18.6643 20.2748 18.475 19.9521C17.9702 19.0917 16.8033 18.5942 14.4582 18.2399L13.4824 18.0924L12.8257 17.7232C11.6907 17.0848 11.4709 16.9729 10.9486 16.7666C10.3077 16.5136 9.58319 16.329 8.80454 16.2205C7.99223 16.1074 7.99026 16.1075 7.95386 16.2863Z" fill="white"/>
</svg>
