<svg width="22" height="30" viewBox="0 0 22 30" fill="none" xmlns="http://www.w3.org/2000/svg">
<path fill-rule="evenodd" clip-rule="evenodd" d="M4.68295 0.0772211C4.48403 0.179066 4.37923 0.407776 4.4126 0.667276C4.52329 1.52722 4.72496 2.84834 4.92255 4.00744C5.39289 6.76666 5.51095 8.0021 5.40453 9.05127C5.28185 10.2613 4.78414 12.4427 4.20007 14.331C3.26432 17.3558 2.85142 19.2713 2.10522 24.0484C1.79965 26.0049 1.32049 29.3883 1.32049 29.5898C1.32049 29.6514 1.38682 29.7689 1.46785 29.8509L1.61514 30H5.53598C9.01188 30 9.47219 29.9891 9.59218 29.904C9.81444 29.7466 10.7419 27.8068 11.2595 26.4169L11.5197 25.7185L11.522 27.7102L11.5243 29.7019L11.6717 29.8509L11.8189 30H15.9527H20.0865L20.2135 29.8633C20.3157 29.7532 20.3757 29.5024 20.5223 28.5728C20.6224 27.9382 20.8512 26.5035 21.0308 25.3845C21.4633 22.6901 21.5488 22.0049 21.5874 20.9208C21.6416 19.4009 21.4026 17.8905 20.906 16.6156C20.4494 15.443 19.4304 13.7067 18.24 12.0727C15.8922 8.8502 15.8689 8.80465 15.805 7.31724C15.7583 6.2329 15.8608 5.59032 16.509 2.90227C17.038 0.708391 17.0832 0.470753 17.0091 0.275263C16.9027 -0.00512918 17.0014 -0.000817294 10.732 0.00015439C6.11994 0.000822423 4.79933 0.0176447 4.68295 0.0772211ZM20.2678 3.90116C20.2224 3.97629 20.1163 4.16079 20.032 4.31109C19.8384 4.65653 19.6868 4.79809 19.2375 5.05303C19.0396 5.16533 18.8693 5.30172 18.8589 5.35614C18.8461 5.42367 18.9636 5.52497 19.229 5.67516C19.6646 5.9216 19.9384 6.2074 20.1825 6.67028C20.4116 7.10456 20.4554 7.09181 20.7817 6.4958C21.0345 6.03395 21.0968 5.97201 21.578 5.70291C22.1323 5.393 22.136 5.32948 21.6157 5.0489C21.1557 4.80076 21.0082 4.65264 20.742 4.17099C20.5033 3.73926 20.4008 3.68089 20.2678 3.90116ZM9.60358 9.71609C9.69541 9.809 9.72362 9.9185 9.72362 10.1819C9.72362 10.5731 9.61534 10.7485 9.37393 10.7485C9.10954 10.7485 9.00336 10.5892 9.00336 10.1925C9.00336 9.80627 9.13084 9.59463 9.36349 9.59463C9.42951 9.59463 9.53755 9.64928 9.60358 9.71609ZM0.996972 12.5552C0.829449 12.8874 0.61691 13.1013 0.255095 13.3017C0.114823 13.3794 0 13.4864 0 13.5395C0 13.5925 0.100537 13.69 0.223463 13.756C0.567692 13.941 0.823387 14.1926 0.999192 14.5194C1.18544 14.8657 1.33094 14.9029 1.44156 14.6328C1.58459 14.2834 1.84377 13.9972 2.18181 13.8154C2.36812 13.7152 2.52052 13.5922 2.52052 13.5421C2.52052 13.492 2.36812 13.369 2.18181 13.2688C1.84377 13.087 1.58459 12.8008 1.44156 12.4514C1.32854 12.1754 1.1699 12.2124 0.996972 12.5552ZM18.8704 14.2253C19.0468 14.5008 19.3024 14.9329 19.4384 15.1854L19.6856 15.6445L19.2201 15.837C18.3159 16.2111 16.844 17.1932 15.5778 18.2672C14.8461 18.8879 13.3843 20.3774 12.8843 21.0119C12.3842 21.6464 11.9742 22.3013 11.7903 22.7593C11.6163 23.1924 11.5117 23.2449 11.0248 23.1434C10.3009 22.9924 9.41931 22.4809 8.22307 21.5179C7.67746 21.0785 5.14404 18.5521 4.48295 17.788L4.0844 17.3272L4.32869 16.4216C4.46308 15.9234 4.57965 15.5088 4.58775 15.5002C4.59585 15.4917 4.85665 15.6046 5.16733 15.7513C5.79198 16.0461 6.58962 16.3231 7.41276 16.5309C7.8771 16.6482 8.1131 16.6675 9.09339 16.668C10.1769 16.6687 10.2712 16.6591 10.9841 16.4765C11.9583 16.2269 12.7337 15.9439 14.5288 15.1827C15.3358 14.8406 16.212 14.4792 16.4761 14.3796C17.1018 14.1437 18.3287 13.7504 18.5032 13.7298C18.5287 13.7268 18.694 13.9498 18.8704 14.2253Z" fill="white"/>
</svg>
