<svg width="25" height="25" viewBox="0 0 25 25" fill="none" xmlns="http://www.w3.org/2000/svg">
<path fill-rule="evenodd" clip-rule="evenodd" d="M0.297248 0.0777507C0.0530918 0.202896 0 0.388928 0 1.11957C0 2.21006 0.049612 2.26005 1.16699 2.29552L1.93863 2.32006L3.64119 8.13377L5.34375 13.9475L4.61828 14.8282C4.21071 15.3229 3.833 15.8319 3.75635 15.9897C3.36689 16.7915 3.39807 17.5813 3.84782 18.3043C4.20277 18.8751 4.72268 19.2066 5.40794 19.2994C5.69 19.3375 8.11905 19.3493 13.6609 19.3394C21.0736 19.3261 21.521 19.3205 21.6363 19.2392C21.8371 19.0973 21.8669 18.9596 21.8669 18.173C21.8669 17.3928 21.8368 17.2698 21.6133 17.1366C21.5373 17.0913 19.6669 17.0718 13.5977 17.0531L5.68125 17.0287L6.49216 16.0513C6.93815 15.5138 7.34619 15.0135 7.3989 14.9396L7.49474 14.8053H12.7494C16.2587 14.8053 18.1254 14.7877 18.3695 14.7524C19.1174 14.6444 19.7213 14.1987 20.0698 13.4977C20.5542 12.5237 23.9463 4.94698 24.0076 4.70226C24.2442 3.75842 23.8345 2.82391 23.011 2.42898L22.7839 2.32006L13.5002 2.29562L4.21664 2.27119L4.15677 2.07573C4.1239 1.96822 4.00883 1.5834 3.90114 1.22057C3.71963 0.609215 3.68929 0.544712 3.48647 0.340062C3.16656 0.0172549 3.06733 -0.00121638 1.66395 5.41347e-05C0.655066 0.000982585 0.421161 0.0142741 0.297248 0.0777507ZM6.1184 20.5266C5.74713 20.6023 5.32555 20.8447 5.02891 21.1529C4.17102 22.0444 4.17686 23.4458 5.04217 24.3449C6.22524 25.5743 8.26323 24.9874 8.67047 23.3001C9.06173 21.679 7.70372 20.203 6.1184 20.5266ZM19.2334 20.5274C18.8965 20.5957 18.4469 20.8533 18.1794 21.1313C17.8005 21.525 17.6087 21.9232 17.5425 22.4528C17.4057 23.5493 18.0938 24.6308 19.1159 24.9256C19.4192 25.0131 19.9918 25.0124 20.2915 24.9242C21.8639 24.4615 22.403 22.3785 21.2621 21.1741C20.726 20.6082 19.9905 20.3737 19.2334 20.5274Z" fill="white"/>
</svg>
