<svg width="10" height="15" viewBox="0 0 10 15" fill="none" xmlns="http://www.w3.org/2000/svg">
<path fill-rule="evenodd" clip-rule="evenodd" d="M8.86649 0.0599825C9.01301 0.109461 9.1241 0.187636 9.43701 0.461496C9.9169 0.881477 9.98226 0.981782 9.9835 1.29987C9.98416 1.47079 9.96723 1.56617 9.9211 1.65162C9.87821 1.73114 8.81086 2.69105 6.60488 4.63419L3.35193 7.49948L6.60848 10.3647C9.1417 12.5934 9.88001 13.2591 9.93234 13.3617C9.9773 13.4499 9.99973 13.5568 10 13.6841C10.0007 13.9847 9.9032 14.1332 9.44054 14.5368C9.1151 14.8207 9.01948 14.8869 8.85823 14.9398C8.61515 15.0196 8.42276 15.02 8.17748 14.9411C7.99273 14.8817 7.81922 14.7338 4.07807 11.4457C-0.2437 7.64727 0.00257778 7.88575 0.00257778 7.49933C0.00257778 7.11292 -0.2437 7.3514 4.07807 3.55284C7.82108 0.262967 7.99263 0.116701 8.17748 0.0574031C8.41853 -0.0199509 8.63208 -0.0191595 8.86649 0.0599825Z" fill="#201B16"/>
</svg>
