<svg width="10" height="15" viewBox="0 0 10 15" fill="none" xmlns="http://www.w3.org/2000/svg">
<path fill-rule="evenodd" clip-rule="evenodd" d="M1.13351 0.0599825C0.986986 0.109461 0.875896 0.187636 0.562989 0.461496C0.0830963 0.881477 0.0177353 0.981782 0.0165021 1.29987C0.0158355 1.47079 0.0327674 1.56617 0.0788968 1.65162C0.121793 1.73114 1.18914 2.69105 3.39512 4.63419L6.64807 7.49948L3.39152 10.3647C0.858297 12.5934 0.119993 13.2591 0.0676643 13.3617C0.0227014 13.4499 0.00027003 13.5568 3.38605e-06 13.6841C-0.000663224 13.9847 0.0967953 14.1332 0.559456 14.5368C0.884895 14.8207 0.98052 14.8869 1.14177 14.9398C1.38485 15.0196 1.57724 15.02 1.82252 14.9411C2.00727 14.8817 2.18078 14.7338 5.92193 11.4457C10.2437 7.64727 9.99742 7.88575 9.99742 7.49933C9.99742 7.11292 10.2437 7.3514 5.92193 3.55284C2.17892 0.262967 2.00737 0.116701 1.82252 0.0574031C1.58147 -0.0199509 1.36792 -0.0191595 1.13351 0.0599825Z" fill="#201B16"/>
</svg>
