<svg width="24" height="24" viewBox="0 0 24 24" fill="none" xmlns="http://www.w3.org/2000/svg">
<rect width="24" height="24" rx="2" fill="#464646"/>
<path fill-rule="evenodd" clip-rule="evenodd" d="M11.636 6.63172C11.4874 6.70908 10.289 7.33783 8.97297 8.02897C6.28473 9.44074 6.33391 9.41011 6.14384 9.79C6.09046 9.89667 6.05279 9.99942 6.06016 10.0184C6.08306 10.0773 11.9676 13.1953 12.027 13.18C12.1286 13.1537 17.9256 10.0551 17.9393 10.0197C17.947 10 17.9095 9.89667 17.8562 9.79C17.6637 9.40537 17.7442 9.4549 14.7846 7.89966C12.683 6.79527 12.1228 6.51143 12.0268 6.50241C11.9215 6.49252 11.8721 6.50887 11.636 6.63172ZM6 13.4941C6 14.9411 6.01004 15.9926 6.02379 15.9875C6.03688 15.9827 6.95909 15.3483 8.07316 14.5778C9.6405 13.4938 10.0911 13.1701 10.065 13.1467C10.0291 13.1145 6.03903 10.9919 6.01449 10.9919C6.00651 10.9919 6 12.1179 6 13.4941ZM15.9515 12.0659C14.8469 12.6546 13.9338 13.1455 13.9224 13.1567C13.9058 13.1731 17.8908 15.9559 17.9762 15.9875C17.99 15.9926 18 14.9411 18 13.4941C18 12.1179 17.991 10.9927 17.9799 10.9937C17.9688 10.9946 17.0561 11.4771 15.9515 12.0659ZM8.58774 15.2542C7.28234 16.1577 6.21429 16.9084 6.21429 16.9225C6.21429 16.9794 6.52079 17.2606 6.66619 17.3372C6.99552 17.5106 6.64524 17.4999 12 17.4999C17.3548 17.4999 17.0045 17.5106 17.3338 17.3372C17.4809 17.2598 17.7857 16.9792 17.7857 16.9212C17.7857 16.8894 13.0765 13.628 13.0336 13.63C13.0176 13.6308 12.8116 13.7365 12.5759 13.8648C12.1842 14.0782 12.1347 14.0983 12 14.0987C11.8699 14.0992 11.8199 14.0812 11.5714 13.9446C11.4167 13.8595 11.2162 13.7498 11.1257 13.7008L10.9612 13.6116L8.58774 15.2542Z" fill="white"/>
</svg>
