<svg width="24" height="25" viewBox="0 0 24 25" fill="none" xmlns="http://www.w3.org/2000/svg">
<rect y="0.5" width="24" height="24" rx="2" fill="#464646"/>
<path fill-rule="evenodd" clip-rule="evenodd" d="M11.4255 6.53741C10.9496 6.62458 10.3932 6.86525 10.0282 7.14172C9.79201 7.32066 9.42478 7.70315 9.26917 7.93228C9.08834 8.19859 8.88502 8.6463 8.80041 8.96461C8.70139 9.33708 8.67454 9.96478 8.7412 10.3474C8.82075 10.804 9.01705 11.2898 9.27634 11.6718C9.42608 11.8925 9.79686 12.2769 10.0282 12.4513C10.2582 12.6247 10.6783 12.8421 10.9729 12.94C11.6115 13.1524 12.3989 13.1522 13.0348 12.9396C13.5185 12.7779 13.9128 12.5391 14.2832 12.1835C14.6914 11.7917 14.9608 11.3703 15.1388 10.8451C15.3596 10.1941 15.3627 9.41427 15.147 8.76586C15.0491 8.47128 14.8318 8.05116 14.6583 7.82116C14.4839 7.58982 14.0995 7.21905 13.8789 7.0693C13.5023 6.81371 13.0123 6.61423 12.5727 6.53758C12.2858 6.48756 11.6982 6.48745 11.4255 6.53741ZM8.44927 12.8828C7.40851 13.3185 6.57907 14.0305 6.22237 14.7946C6.06594 15.1296 6.02105 15.3199 6.00337 15.7222C5.98494 16.1424 6.04043 16.4193 6.21233 16.765C6.35392 17.0497 6.78185 17.4814 7.11596 17.6765C7.83043 18.0938 8.74241 18.3245 10.2266 18.4636C10.7444 18.5121 13.2633 18.5121 13.7812 18.4636C15.3671 18.315 16.3287 18.0549 17.0323 17.5844C17.3268 17.3874 17.6632 17.0251 17.7953 16.7627C17.9668 16.4219 18.0229 16.1431 18.0044 15.7222C17.9867 15.3199 17.9418 15.1296 17.7854 14.7946C17.5221 14.2307 17.0302 13.7168 16.3473 13.2923C16.1137 13.1471 15.451 12.8154 15.3945 12.8154C15.3789 12.8154 15.2944 12.8853 15.2069 12.9707C14.8344 13.3344 14.4474 13.6111 13.9928 13.8385C12.306 14.6824 10.2455 14.3617 8.86736 13.0408C8.73827 12.9171 8.6263 12.8163 8.61854 12.8168C8.61078 12.8174 8.53461 12.8471 8.44927 12.8828Z" fill="white"/>
</svg>
