<svg width="24" height="24" viewBox="0 0 24 24" fill="none" xmlns="http://www.w3.org/2000/svg">
<rect width="24" height="24" rx="2" fill="#464646"/>
<path fill-rule="evenodd" clip-rule="evenodd" d="M12.1958 6.01419C12.1958 6.02728 12.1694 6.21941 12.1372 6.44111C12.1049 6.66282 12.0785 6.86289 12.0785 6.88574C12.0785 6.91938 12.113 6.93272 12.2604 6.95622C12.9808 7.07095 13.8448 7.41077 14.4713 7.82578C14.8567 8.08112 15.1008 8.27873 15.4198 8.59377C16.2467 9.41029 16.7899 10.3981 17.0414 11.5427C17.0856 11.7441 17.0993 11.7768 17.1381 11.7735C17.2544 11.7638 17.9831 11.6398 17.9977 11.6273C18.0067 11.6195 17.9888 11.4964 17.9579 11.3536C17.5148 9.30621 16.1571 7.56758 14.2809 6.64515C13.686 6.35264 13.0862 6.15096 12.5241 6.0544C12.4017 6.03336 12.2777 6.01035 12.2487 6.00324C12.2196 5.99616 12.1958 6.00108 12.1958 6.01419ZM7.83875 7.1682C7.61289 7.21513 7.50939 7.29551 6.9064 7.89232C6.58537 8.21008 6.28714 8.52476 6.24365 8.59163C5.8222 9.23979 5.94832 10.3141 6.61563 11.76C7.36258 13.3785 8.70639 15.0118 10.2478 16.1746C11.1555 16.8594 12.2375 17.4492 13.1347 17.7483C13.876 17.9954 14.5731 18.0653 15.017 17.937C15.3492 17.8409 15.423 17.7849 16.0847 17.1268C16.6417 16.5729 16.7067 16.5001 16.7755 16.3525C16.8403 16.2137 16.8516 16.1633 16.8516 16.0111C16.8516 15.859 16.8403 15.8082 16.7758 15.6696C16.7056 15.519 16.6362 15.4433 15.8502 14.6598C15.1577 13.9695 14.9767 13.8015 14.8714 13.7513C14.6936 13.6663 14.5253 13.6377 14.3727 13.6665C14.1197 13.7141 14.0252 13.7844 13.437 14.3632C13.1321 14.6632 12.8647 14.9087 12.8427 14.9087C12.7858 14.9087 12.2326 14.6238 12.0193 14.4846C11.1902 13.9437 10.248 13.0268 9.64526 12.1742C9.43795 11.881 9.34088 11.7183 9.20231 11.4319C9.11662 11.2547 9.09587 11.1899 9.10857 11.139C9.11909 11.0969 9.316 10.8814 9.66204 10.5334C10.1421 10.0505 10.2069 9.97621 10.2716 9.83362C10.3946 9.56245 10.3685 9.30392 10.1912 9.03816C10.1463 8.9708 9.74724 8.55485 9.30443 8.11382C8.58146 7.39375 8.48375 7.30478 8.34676 7.24166C8.17904 7.1644 7.98921 7.13693 7.83875 7.1682ZM12.0713 8.45571C12.0389 8.62553 11.9532 9.3026 11.963 9.31236C11.9692 9.31855 12.0584 9.34098 12.1613 9.36218C13.3644 9.61008 14.3255 10.5461 14.6139 11.7508C14.6382 11.8524 14.6612 11.938 14.665 11.9411C14.6759 11.9499 15.5519 11.7971 15.5649 11.7841C15.5794 11.7695 15.5392 11.5707 15.478 11.3551C15.0545 9.86167 13.7955 8.71564 12.2627 8.42812L12.0831 8.39444L12.0713 8.45571Z" fill="white"/>
</svg>
