<svg width="12" height="12" viewBox="0 0 12 12" fill="none" xmlns="http://www.w3.org/2000/svg">
<rect x="0.5" y="0.5" width="11" height="11" rx="1.5" stroke="#1E1E1E"/>
<path fill-rule="evenodd" clip-rule="evenodd" d="M8.17345 3.01409C8.08442 3.05308 7.59911 3.44166 7.29948 3.71386C6.54173 4.40224 5.75227 5.28736 5.11333 6.16494C5.01589 6.29876 4.93141 6.40882 4.9256 6.40949C4.9198 6.41014 4.62455 6.1898 4.26949 5.9198C3.91445 5.64983 3.61206 5.4202 3.59753 5.40953C3.58302 5.39887 3.55025 5.39016 3.52475 5.39016C3.48254 5.39016 3.45683 5.41347 3.23984 5.64841C2.94446 5.96822 2.95036 5.94526 3.10426 6.17611C3.81868 7.24767 4.56368 8.42499 4.78174 8.82699C4.83606 8.92715 4.86621 8.96757 4.89945 8.98473C4.95036 9.01104 5.00974 9.00267 5.04054 8.96487C5.0516 8.9513 5.12847 8.81553 5.21137 8.66318C5.88764 7.42023 6.7453 6.04177 7.45189 5.06212C7.88845 4.45686 8.21267 4.05669 8.65368 3.57888C8.97779 3.22771 9 3.20031 9 3.15148C9 3.08407 8.98179 3.04848 8.93332 3.02119C8.90126 3.00314 8.8319 2.99933 8.54876 3.00009C8.35876 3.0006 8.18987 3.0069 8.17345 3.01409Z" fill="#1E1E1E"/>
</svg>
