<svg width="32" height="29" viewBox="0 0 32 29" fill="none" xmlns="http://www.w3.org/2000/svg">
<path fill-rule="evenodd" clip-rule="evenodd" d="M13.2034 0.0380745C7.73687 0.479918 2.97924 4.06879 0.981391 9.25764C0.49979 10.5086 0.141386 12.1276 0.044066 13.4918L0 14.1097H7.05544H14.1109L18.6551 9.49862C21.9653 6.1397 23.2268 4.8202 23.3005 4.63968C23.4409 4.29596 23.4288 3.72006 23.2746 3.41354C22.8716 2.61263 20.5543 1.27512 18.4086 0.604909C16.8759 0.126177 14.8471 -0.0947764 13.2034 0.0380745ZM27.2983 3.39173C27.1952 3.45772 25.2359 5.41853 22.9443 7.74906C18.9957 11.7649 18.7756 12.0006 18.7351 12.2576C18.6716 12.6595 18.8918 13.0796 19.2664 13.2711L19.5477 13.4149L25.4905 13.3979L31.4334 13.3808L31.6609 13.2049C31.9956 12.946 32.0524 12.6888 31.9608 11.847C31.6477 8.9702 30.5348 6.2375 28.7837 4.04502C28.525 3.72107 28.234 3.41449 28.1371 3.36366C27.8936 3.236 27.5222 3.24843 27.2983 3.39173ZM0.044066 15.4883C0.502728 21.9191 5.06191 27.265 11.2658 28.6462C11.9282 28.7937 12.6203 28.8914 13.5316 28.9662L13.891 28.9956V21.933V14.8703H6.94549H0L0.044066 15.4883ZM14.7036 21.9334V29L15.1255 28.966C18.1097 28.7256 20.6415 27.769 22.9296 26.0174C25.6361 23.9455 27.631 20.7411 28.2956 17.3977C28.4713 16.5135 28.4857 16.2854 28.3877 15.9275C28.3058 15.6285 27.9533 15.2236 27.6151 15.0401L27.3608 14.902L21.0322 14.8845L14.7036 14.8669V21.9334Z" fill="#464646"/>
</svg>
