<svg width="30" height="32" viewBox="0 0 30 32" fill="none" xmlns="http://www.w3.org/2000/svg">
<path fill-rule="evenodd" clip-rule="evenodd" d="M2.0915 0.523536C1.65794 0.81219 1.25781 1.02721 1.15414 1.02728C1.05465 1.02735 0.754298 0.880647 0.486656 0.701192L0 0.375034L0.0190916 11.4126L0.0382551 22.45L0.307339 22.994C0.631392 23.6491 1.0486 24.0572 1.71832 24.3742L2.19957 24.602L8.28727 24.6218C11.6355 24.6326 15.0357 24.6326 15.8433 24.6218L17.3116 24.602L17.0386 24.2781C16.6913 23.8662 16.32 23.0697 16.2187 22.5193C16.1641 22.2228 16.14 18.771 16.14 11.2343V0.376546L15.6545 0.701983C15.3875 0.881007 15.089 1.02742 14.9912 1.02742C14.8915 1.02742 14.4722 0.801897 14.0359 0.513674L13.2583 0L12.4807 0.513674C12.053 0.796282 11.6248 1.02742 11.5292 1.02742C11.4336 1.02742 11.0055 0.796282 10.5778 0.513674L9.80019 0L9.02262 0.513674C8.5949 0.796282 8.16674 1.02742 8.07114 1.02742C7.97554 1.02742 7.54738 0.796282 7.11966 0.513674L6.34209 0L5.56452 0.513674C5.12981 0.800889 4.70885 1.02735 4.60994 1.02728C4.51109 1.02721 4.09893 0.804776 3.67647 0.523536C3.26041 0.246544 2.9038 0.0199395 2.88398 0.0199395C2.86417 0.0199395 2.50756 0.246544 2.0915 0.523536ZM12.1056 3.90676V4.48263H8.07114H4.03669V3.90676V3.33089H8.07114H12.1056V3.90676ZM4.61304 7.36197V7.93784H3.46034H2.30763V7.36197V6.7861H3.46034H4.61304V7.36197ZM10.3765 7.36197V7.93784H8.07114H5.76574V7.36197V6.7861H8.07114H10.3765V7.36197ZM14.411 7.36197V7.93784H13.2583H12.1056V7.36197V6.7861H13.2583H14.411V7.36197ZM17.3092 14.9022L17.3288 22.4425L17.5568 22.9234C17.8741 23.5926 18.2825 24.0094 18.9382 24.3332C19.4526 24.5872 19.5207 24.602 20.1745 24.602C20.8283 24.602 20.8964 24.5872 21.4108 24.3332C22.0665 24.0094 22.4749 23.5926 22.7922 22.9234L23.0202 22.4425L23.0562 15.928C23.0902 9.79451 23.1001 9.39248 23.2268 9.05359C23.4123 8.55755 23.6647 8.07 23.8644 7.82216C24.2762 7.31122 24.6189 7.36197 20.7581 7.36197H17.2895L17.3092 14.9022ZM26.4148 7.43741C25.9589 7.55187 25.3101 7.93554 24.9951 8.27696C24.8334 8.45231 24.5983 8.81223 24.473 9.07662L24.245 9.55747L24.2073 16.072L24.1695 22.5865L24.0032 23.0344C23.5523 24.2485 22.6709 25.1222 21.4234 25.5915C21.0145 25.7454 20.9049 25.7504 17.4188 25.7735L13.8346 25.7972V28.7104V31.6235L14.3201 31.298C14.5872 31.119 14.8857 30.9726 14.9835 30.9726C15.0832 30.9726 15.5025 31.1981 15.9388 31.4863L16.7164 32L17.494 31.4863C17.9217 31.2037 18.3498 30.9726 18.4454 30.9726C18.541 30.9726 18.9692 31.2037 19.3969 31.4863L20.1745 32L20.9521 31.4863C21.3798 31.2037 21.8079 30.9726 21.9035 30.9726C21.9991 30.9726 22.4273 31.2037 22.855 31.4863L23.6326 32L24.4102 31.4863C24.8379 31.2037 25.266 30.9726 25.3616 30.9726C25.4573 30.9726 25.8854 31.2037 26.3131 31.4863L27.0907 32L27.8683 31.4863C28.3046 31.1981 28.7239 30.9726 28.8236 30.9726C28.9214 30.9726 29.2204 31.1194 29.488 31.2988L29.9747 31.625L29.9556 20.5874L29.9364 9.54998L29.6673 9.00601C29.1805 8.02177 28.3156 7.44432 27.2527 7.39379C26.9457 7.37918 26.5686 7.39883 26.4148 7.43741ZM10.3765 10.2413V10.8172H6.34209H2.30763V10.2413V9.66545H6.34209H10.3765V10.2413ZM14.411 10.2413V10.8172H13.2583H12.1056V10.2413V9.66545H13.2583H14.411V10.2413ZM10.3765 13.1207V13.6965H6.34209H2.30763V13.1207V12.5448H6.34209H10.3765V13.1207ZM14.411 13.1207V13.6965H13.2583H12.1056V13.1207V12.5448H13.2583H14.411V13.1207ZM6.91844 16V16.5759H4.61304H2.30763V16V15.4241H4.61304H6.91844V16ZM10.3765 16V16.5759H9.22384H8.07114V16V15.4241H9.22384H10.3765V16ZM14.411 16V16.5759H13.2583H12.1056V16V15.4241H13.2583H14.411V16ZM10.3765 18.8793V19.4552H6.34209H2.30763V18.8793V18.3035H6.34209H10.3765V18.8793ZM14.411 18.8793V19.4552H13.2583H12.1056V18.8793V18.3035H13.2583H14.411V18.8793ZM10.3765 21.7587V22.3346H6.34209H2.30763V21.7587V21.1828H6.34209H10.3765V21.7587ZM14.411 21.7587V22.3346H13.2583H12.1056V21.7587V21.1828H13.2583H14.411V21.7587Z" fill="#464646"/>
</svg>
