<svg width="30" height="30" viewBox="0 0 30 30" fill="none" xmlns="http://www.w3.org/2000/svg">
<path fill-rule="evenodd" clip-rule="evenodd" d="M19.4313 4.06798V8.13597H21.1023H22.7733V4.06798V0H21.1023H19.4313V4.06798ZM1.18641 2.12489C1.1489 2.13868 1.03439 2.16722 0.931874 2.18826C0.82943 2.2093 0.632794 2.31881 0.494884 2.43164C0.0345 2.80837 -0.121621 3.37179 0.0984082 3.86255C0.333784 4.38764 0.733738 4.6075 1.5436 4.65708C2.22286 4.69865 2.62022 4.85971 2.96206 5.23187C3.09493 5.37648 3.24641 5.63842 3.299 5.81423C3.35145 5.98998 3.8428 9.86645 4.39082 14.4286C4.93885 18.9908 5.43286 22.8951 5.48872 23.1049C5.80274 24.2845 6.67631 25.2838 7.87931 25.8394C8.80901 26.2687 8.26767 26.249 19.1243 26.2487C28.5286 26.2484 28.9575 26.2434 29.2187 26.1311C30.2235 25.6989 30.269 24.4106 29.2979 23.892L29.0141 23.7405L19.1584 23.7087C11.6785 23.6846 9.25848 23.6584 9.1188 23.6003C8.81446 23.4736 8.36827 23.0583 8.23431 22.7771C8.13698 22.5727 7.87665 20.5918 7.08574 14.0373C5.97345 4.81992 5.99835 4.97209 5.46839 4.13949C4.93455 3.30072 3.78366 2.49882 2.77123 2.26027C2.37966 2.16798 1.31621 2.07715 1.18641 2.12489ZM15.1116 2.58489C15.0866 2.60815 15.0661 3.86668 15.0661 5.38162V8.13597H16.7713H18.4764V5.33923V2.54249H16.8168C15.9039 2.54249 15.1366 2.56156 15.1116 2.58489ZM10.7692 6.7376V8.13597H12.4402H14.1113V6.7376V5.33923H12.4402H10.7692V6.7376ZM7.46237 9.2642C7.47983 9.3603 7.57136 10.0969 7.66576 10.9009C7.76008 11.705 7.85516 12.4701 7.87692 12.6012L7.91661 12.8396H9.75215H11.5877L11.5869 12.6966C11.5865 12.6179 11.4944 11.8099 11.3824 10.9009C11.2704 9.99198 11.1787 9.21258 11.1786 9.16885C11.1785 9.1072 10.7581 9.0894 9.30452 9.0894H7.43059L7.46237 9.2642ZM12.1605 9.32776C12.182 9.45889 12.2772 10.2383 12.3721 11.0598C12.467 11.8814 12.5601 12.6179 12.579 12.6966L12.6133 12.8396H17.2841C19.853 12.8396 21.9548 12.8276 21.9548 12.8128C21.9548 12.7981 22.0469 12.0236 22.1595 11.0916C22.272 10.1597 22.3641 9.32789 22.3641 9.24328V9.0894H17.2427H12.1213L12.1605 9.32776ZM23.356 9.29598C23.3354 9.40956 23.2415 10.1604 23.1473 10.9645C23.0531 11.7685 22.9597 12.5194 22.9398 12.633L22.9035 12.8396H25.4984C27.9221 12.8396 28.0936 12.8469 28.099 12.9508C28.102 13.012 28.2358 12.5235 28.3961 11.8654C28.7648 10.3517 28.7318 10.0758 28.1159 9.52156C27.6481 9.10046 27.5779 9.0894 25.3703 9.0894H23.3934L23.356 9.29598ZM8.06407 14.1585C8.0876 14.3945 8.17416 15.1382 8.25641 15.8111L8.40592 17.0347H10.2727H12.1395L12.1028 16.8281C12.0826 16.7145 12.004 16.0781 11.9281 15.4138C11.8522 14.7496 11.7725 14.0989 11.751 13.9678L11.7121 13.7294H9.86666H8.02131L8.06407 14.1585ZM12.7375 13.7596C12.7197 13.7762 12.7897 14.4842 12.8931 15.3328C12.9965 16.1814 13.0826 16.9117 13.0846 16.9557C13.0874 17.0192 13.9478 17.0323 17.2657 17.0193L21.4433 17.0029L21.6251 15.541C21.7251 14.7369 21.8096 14.0003 21.8127 13.9042L21.8184 13.7294H17.2942C14.8058 13.7294 12.7554 13.743 12.7375 13.7596ZM22.8105 13.8089C22.7825 13.8925 22.43 16.8182 22.4315 16.9552C22.4321 17.0172 22.942 17.0347 24.7513 17.0347H27.0702V17.1724C27.0702 17.2481 27.0841 17.2973 27.1009 17.2815C27.1178 17.2657 27.3018 16.5301 27.5097 15.6468C27.7177 14.7635 27.9067 13.9707 27.9297 13.8851L27.9717 13.7294H25.4045C23.4103 13.7294 22.8313 13.7472 22.8105 13.8089ZM8.51846 17.9576C8.51846 18.0378 8.93137 21.408 8.96799 21.6271L9.00789 21.8654H10.8434H12.679L12.6732 21.6588C12.6701 21.5452 12.5704 20.6657 12.4516 19.7043L12.2356 17.9563L10.377 17.9394C9.35478 17.9301 8.51846 17.9383 8.51846 17.9576ZM13.2246 18.014C13.2246 18.166 13.6338 21.5706 13.6703 21.7224L13.7046 21.8654H17.2841C19.2528 21.8654 20.8636 21.8534 20.8636 21.8386C20.8636 21.7744 21.2718 18.3777 21.3054 18.1629L21.3426 17.9246H17.2836C13.8399 17.9246 13.2246 17.9381 13.2246 18.014ZM22.2941 18.004C22.2931 18.0477 22.1892 18.9129 22.0632 19.9268C21.9371 20.9406 21.858 21.7943 21.8873 21.8238C21.9167 21.8535 22.6421 21.8666 23.4994 21.8531C25.1729 21.8268 25.3086 21.8033 25.7974 21.4558C26.0903 21.2476 26.3631 20.7759 26.4245 20.3717C26.451 20.1969 26.5764 19.6115 26.7032 19.0708C26.8301 18.5302 26.9338 18.0511 26.9338 18.0062C26.9338 17.8881 22.2968 17.886 22.2941 18.004ZM11.4057 26.6935C10.8013 26.8277 10.2545 27.3152 10.0884 27.8679C9.91107 28.4581 10.084 29.0833 10.5476 29.5281C10.8969 29.8633 11.2585 29.9983 11.8115 30C12.3595 30.0016 12.6319 29.9074 13.0174 29.5828C13.455 29.2144 13.5963 28.9141 13.5982 28.3488C13.5995 27.9365 13.572 27.8254 13.3951 27.5273C13.0034 26.8674 12.179 26.5219 11.4057 26.6935ZM23.2385 26.7182C22.7242 26.8522 22.2168 27.2799 22.0201 27.7452C21.9759 27.8499 21.9386 28.1215 21.9373 28.3488C21.9334 29.0355 22.3214 29.5893 23.012 29.8827C23.3782 30.0382 24.0795 30.0375 24.4488 29.8812C25.6423 29.376 25.902 27.9134 24.9417 27.105C24.4665 26.7048 23.8377 26.562 23.2385 26.7182Z" fill="#464646"/>
</svg>
