<svg width="26" height="26" viewBox="0 0 26 26" fill="none" xmlns="http://www.w3.org/2000/svg">
<path fill-rule="evenodd" clip-rule="evenodd" d="M2.82467 0.0953251C2.69561 0.155794 2.17335 0.641223 1.39201 1.42697C0.123598 2.7024 0.00698075 2.85548 0.00698075 3.24464C0.00698075 3.6499 0.112987 3.78775 1.44258 5.11122C2.76776 6.43032 2.85396 6.49612 3.2562 6.49612C3.82858 6.49612 4.32236 6.00272 4.32236 5.43088C4.32236 5.09157 4.22696 4.87772 3.93768 4.56842L3.69922 4.31349H8.1339H12.5685L12.3316 4.55466C12.0464 4.84497 11.9377 5.0868 11.9377 5.43088C11.9377 6.13909 12.6159 6.63147 13.3125 6.4289C13.5715 6.3536 13.6631 6.27303 14.8629 5.06461C16.0828 3.83603 16.1408 3.76881 16.2007 3.51384C16.2503 3.30263 16.2503 3.19194 16.2007 2.98073C16.1409 2.72621 16.0816 2.65716 14.8883 1.45164C14.0811 0.636247 13.5666 0.155591 13.4354 0.0946143C12.7509 -0.223826 11.9377 0.302321 11.9377 1.06369C11.9377 1.40777 12.0464 1.6496 12.3316 1.93991L12.5685 2.18108H8.13004H3.69155L3.92844 1.93991C4.21366 1.6496 4.32236 1.40777 4.32236 1.06369C4.32236 0.304708 3.50523 -0.223674 2.82467 0.0953251ZM2.54544 9.82502C1.35917 10.0798 0.333071 11.1154 0.0830837 12.31C-0.0276946 12.8397 -0.0276946 22.8994 0.0830837 23.429C0.335609 24.636 1.36389 25.6644 2.57082 25.9169C3.10045 26.0277 13.1596 26.0277 13.6893 25.9169C14.8962 25.6644 15.9245 24.636 16.177 23.429C16.2878 22.8994 16.2878 12.8397 16.177 12.31C15.9245 11.103 14.8962 10.0747 13.6893 9.82217C13.1746 9.71449 3.04805 9.71708 2.54544 9.82502ZM22.3789 9.82476C22.0844 9.9327 19.805 12.1542 19.6317 12.502C19.3491 13.0691 19.5676 13.7018 20.1369 13.9654C20.5597 14.1612 21.0639 14.0389 21.4696 13.6422L21.6854 13.4313V17.8697V22.3083L21.4442 22.0714C21.1539 21.7861 20.9121 21.6774 20.5681 21.6774C19.8091 21.6774 19.2808 22.4946 19.5998 23.1752C19.6602 23.3043 20.1456 23.8265 20.9313 24.6079C22.2067 25.8764 22.3598 25.993 22.7489 25.993C23.1542 25.993 23.2919 25.8871 24.615 24.5573C25.8646 23.3015 25.8904 23.2713 25.9503 22.9972C26.1275 22.1863 25.4032 21.5063 24.5942 21.7242C24.4616 21.7599 24.2757 21.8783 24.0997 22.0391L23.8177 22.2969V17.8639V13.4308L24.0589 13.6677C24.3492 13.953 24.591 14.0617 24.935 14.0617C25.6781 14.0617 26.2047 13.2826 25.9228 12.6004C25.8717 12.4767 25.4122 11.9778 24.5901 11.1537C23.4624 10.0231 23.3101 9.88818 23.085 9.8209C22.7817 9.73023 22.6344 9.73104 22.3789 9.82476Z" fill="#181818"/>
</svg>
