<svg width="29" height="26" viewBox="0 0 29 26" fill="none" xmlns="http://www.w3.org/2000/svg">
<path fill-rule="evenodd" clip-rule="evenodd" d="M6.11631 0.0649372C6.0172 0.0947681 5.86572 0.184198 5.77974 0.263643C5.46101 0.558435 5.45187 0.638445 5.45187 3.13809V5.46377H6.48429H7.51671V3.81076V2.15781L7.68878 1.81724C7.80135 1.59435 7.95458 1.41135 8.13197 1.28782L8.40303 1.09903L9.75882 1.06537C10.9937 1.03479 11.1376 1.01959 11.3738 0.894865C11.6493 0.74929 12.0509 0.32387 12.1035 0.121647C12.1346 0.00257489 12.0741 0.000125512 9.21589 0.00540087C7.61026 0.00835257 6.21549 0.0351691 6.11631 0.0649372ZM16.3024 0.251208C16.3226 0.389372 16.3558 0.615459 16.376 0.753623L16.4128 1.00483H22.6272H28.8417L28.8821 0.675121C28.9044 0.493749 28.9374 0.267725 28.9555 0.172705L28.9885 0H22.6271H16.2656L16.3024 0.251208ZM16.5493 2.21377C16.5694 2.326 17.122 6.64287 17.7775 11.8068C18.4331 16.9707 18.9852 21.2734 19.0046 21.3684L19.0397 21.5411H22.6297H26.2197L26.2552 21.337C26.2746 21.2247 26.8241 16.922 27.4761 11.7754C28.1282 6.62874 28.678 2.326 28.6979 2.21377L28.734 2.00966H22.6235H16.513L16.5493 2.21377ZM23.0885 4.21037C24.4241 4.37849 25.5444 5.15723 26.1605 6.3457C26.4751 6.95274 26.599 7.47544 26.599 8.19565C26.599 9.14729 26.3481 9.89231 25.7679 10.6637C25.272 11.3227 24.3902 11.8979 23.5821 12.0891C23.0776 12.2085 22.1738 12.2076 21.6649 12.0872C20.1055 11.7182 18.8621 10.3111 18.6606 8.6872C18.3916 6.51985 19.9501 4.49015 22.0958 4.21332C22.3194 4.18449 22.5173 4.1573 22.5354 4.1529C22.5535 4.14851 22.8024 4.17438 23.0885 4.21037ZM22.2209 5.21601C21.5104 5.31154 20.9809 5.58818 20.4611 6.13518C19.8997 6.72609 19.6458 7.3521 19.6423 8.15464C19.6377 9.22441 20.1472 10.1693 21.0383 10.7431C21.9558 11.3341 23.298 11.3293 24.2327 10.7317C24.5582 10.5235 25.0032 10.0672 25.2053 9.7343C25.7486 8.83969 25.7318 7.48586 25.1665 6.60174C24.9229 6.22066 24.3884 5.70725 24.0603 5.53926C23.523 5.26418 22.8033 5.1377 22.2209 5.21601ZM4.07531 7.50483V8.54106H6.48429H8.89328V7.50483V6.4686H6.48429H4.07531V7.50483ZM2.29204 9.66459C1.7548 9.82166 1.4452 9.99857 1.02986 10.386C0.254351 11.1092 0.0173948 11.7652 0.011826 13.2041L0.00819683 14.1304H6.67201H13.3358V13.1322C13.3358 12.3099 13.3137 12.062 13.2101 11.7254C12.9747 10.9603 12.3794 10.2486 11.6812 9.8974C10.9855 9.54746 10.9568 9.54552 6.64322 9.55035C3.05221 9.55443 2.63111 9.56549 2.29204 9.66459ZM0.00819683 17.7729V20.4106H6.67201H13.3358V17.7729V15.1353H6.67201H0.00819683V17.7729ZM0.0197724 22.907C0.0390443 24.3672 0.0429237 24.4058 0.203606 24.744C0.486614 25.3397 0.97423 25.7416 1.61245 25.9052C1.94827 25.9913 2.60996 26.0015 6.86985 25.9861L11.743 25.9686L12.1607 25.7622C12.6621 25.5144 13.0295 25.1212 13.2086 24.641C13.3229 24.3342 13.3358 24.1537 13.3358 22.8575V21.4155H6.66794H0L0.0197724 22.907ZM19.0923 24.2729V26H22.6276H26.1629V24.2729V22.5459H22.6276H19.0923V24.2729Z" fill="black"/>
</svg>
