<svg width="25" height="30" viewBox="0 0 25 30" fill="none" xmlns="http://www.w3.org/2000/svg">
<path fill-rule="evenodd" clip-rule="evenodd" d="M10.9036 0.0512795C10.1375 0.15455 9.29118 0.392387 7.84077 0.911955C6.21498 1.49438 5.50006 1.68638 4.58477 1.78623C4.20091 1.82812 3.7308 1.89225 3.54001 1.92878C2.89854 2.05141 2.32167 2.62627 2.1729 3.29119C2.09925 3.6203 2.13369 3.90143 2.63879 7.08934C2.93875 8.98285 3.18396 10.5531 3.18369 10.5787C3.18342 10.6044 3.40189 10.7396 3.66908 10.8792C4.34285 11.2313 5.02908 11.9243 5.35256 12.5792C5.74936 13.3825 5.79218 13.637 5.86355 15.6186C5.89934 16.61 5.93982 17.4325 5.95362 17.4463C5.96736 17.4601 6.14582 17.3337 6.35015 17.1655C7.17832 16.4837 8.41529 15.9473 9.50422 15.7978C10.1845 15.7043 14.4101 15.7043 15.0903 15.7978C16.1793 15.9473 17.4162 16.4837 18.2444 17.1655C18.4487 17.3337 18.6272 17.4601 18.6409 17.4463C18.6547 17.4325 18.6952 16.61 18.731 15.6186C18.8024 13.637 18.8452 13.3825 19.242 12.5792C19.5655 11.9243 20.2517 11.2313 20.9255 10.8792C21.1927 10.7396 21.4113 10.6007 21.4113 10.5706C21.4113 10.5406 21.6537 8.99673 21.95 7.1398C22.5041 3.66675 22.5217 3.46195 22.31 2.95531C22.1665 2.61166 21.7538 2.18538 21.4223 2.03821C21.2537 1.96342 20.8475 1.88247 20.4554 1.84561C19.5622 1.76157 18.6661 1.56267 17.7608 1.24757C15.4373 0.438828 15.0182 0.305066 14.4082 0.177268C13.6268 0.0136171 11.6974 -0.0557436 10.9036 0.0512795ZM13.9421 2.45096C14.6157 2.57359 15.276 2.77652 16.2542 3.16165C17.1325 3.50738 18.5991 3.93233 19.2668 4.03452C19.6444 4.09236 19.7741 4.15998 19.9124 4.37094C20.016 4.52903 19.9954 4.70575 19.5289 7.66601C18.9807 11.144 18.9915 11.1076 18.5025 11.1215C18.2987 11.1273 18.211 11.0899 18.0855 10.944C17.998 10.8423 17.9265 10.6774 17.9265 10.5774C17.9265 10.4774 18.1086 9.25165 18.331 7.85358C18.5534 6.45545 18.7268 5.26827 18.7163 5.2154C18.7041 5.15394 18.4672 5.06354 18.0606 4.9651C17.7104 4.88039 16.757 4.56917 15.9418 4.27363C14.1702 3.63129 13.4171 3.46201 12.3308 3.46201C11.3362 3.46201 10.5252 3.62365 9.26471 4.07313C7.7113 4.62707 6.58082 4.98815 6.23971 5.03928C6.064 5.06562 5.90537 5.12566 5.88734 5.17278C5.86932 5.21982 6.03779 6.41477 6.26176 7.82818C6.48572 9.2416 6.66874 10.4793 6.66847 10.5786C6.6682 10.6779 6.5965 10.8423 6.50904 10.944C6.24762 11.2479 5.67832 11.1456 5.56648 10.7746C5.47064 10.4566 4.58953 4.57601 4.62223 4.47287C4.6995 4.2294 4.92105 4.12339 5.67162 3.97079C6.62163 3.77766 7.39277 3.54451 8.51092 3.1124C10.5097 2.33991 12.2008 2.13398 13.9421 2.45096ZM1.42059 11.7305C0.862819 11.9384 0.48271 12.294 0.158424 12.9111C0.0185631 13.1775 0 13.3028 0 13.9834C0 14.7067 0.0127328 14.7808 0.20768 15.1897C0.652057 16.1218 1.26712 16.6411 2.14381 16.8244C2.66559 16.9336 2.91489 17.1374 2.91549 17.4552C2.91569 17.5545 3.0191 19.1027 3.14529 20.8956C3.36456 24.01 3.38225 24.1702 3.54275 24.4869C3.72926 24.8549 4.08732 25.2019 4.45161 25.3676C4.66814 25.466 5.41924 25.4765 12.2973 25.4765C19.1753 25.4765 19.9264 25.466 20.1429 25.3676C20.5076 25.2017 20.8654 24.8548 21.0524 24.4857C21.2143 24.1662 21.2301 24.0195 21.4509 20.7938C21.5774 18.9463 21.696 17.3677 21.7144 17.2858C21.7701 17.0391 22.0001 16.8823 22.3751 16.8354C23.1955 16.733 23.894 16.1784 24.3403 15.2754C24.5903 14.7697 24.5945 14.748 24.5945 13.9869C24.5945 13.2695 24.5809 13.1867 24.408 12.8586C24.1825 12.4308 23.7967 12.0323 23.4078 11.8257C22.9698 11.5931 22.1218 11.6054 21.5954 11.852C21.1518 12.06 20.5496 12.6011 20.3144 13.0032C19.9684 13.5949 19.9466 13.7887 19.8375 17.2574C19.7811 19.0504 19.7036 20.631 19.6655 20.7698C19.5777 21.0884 19.2595 21.454 18.9046 21.6438L18.6302 21.7906H12.2973H5.96434L5.68992 21.6438C5.33541 21.4541 5.01715 21.0887 4.92863 20.7698C4.89009 20.631 4.81282 19.0509 4.75687 17.2585C4.64857 13.7896 4.62692 13.5961 4.28012 13.0032C4.04376 12.5991 3.44076 12.0584 3.00275 11.8579C2.53733 11.6448 1.8082 11.5861 1.42059 11.7305ZM9.87582 16.9336C9.18402 17.0117 8.60548 17.1684 8.03257 17.4328C6.75532 18.0223 6.04181 18.9433 6.03471 20.0118C6.03156 20.4788 6.04228 20.5171 6.1989 20.5972C6.33125 20.6649 7.61265 20.683 12.2973 20.683C16.9819 20.683 18.2633 20.6649 18.3956 20.5972C18.5523 20.5171 18.563 20.4788 18.5598 20.0118C18.5561 19.4465 18.3727 18.9568 17.9812 18.4661C17.6852 18.0952 16.9584 17.5909 16.3645 17.3445C15.4395 16.9606 15.0948 16.9193 12.6323 16.8965C11.3976 16.8851 10.1571 16.9018 9.87582 16.9336ZM5.22684 26.8C5.24655 26.883 5.36764 27.4756 5.49598 28.1169C5.62431 28.7583 5.78287 29.3766 5.84834 29.4908C5.98009 29.7205 6.46669 30 6.73502 30C6.97326 30 7.47185 29.7342 7.62277 29.5267C7.70017 29.4203 7.84827 28.8635 8.01206 28.0635C8.15741 27.3533 8.27637 26.7445 8.27637 26.7107C8.27637 26.6752 7.62444 26.6492 6.73375 26.6492H5.19112L5.22684 26.8ZM16.1841 26.7384C16.1841 26.9119 16.6544 29.165 16.7285 29.3469C16.8493 29.6431 17.2138 29.9184 17.5525 29.9692C17.9388 30.0271 18.3966 29.8211 18.5949 29.5003C18.7081 29.3171 18.9934 28.0915 19.2157 26.8335L19.2483 26.6492H17.7162C16.4857 26.6492 16.1841 26.6668 16.1841 26.7384Z" fill="#181818"/>
</svg>
