<svg width="32" height="32" viewBox="0 0 32 32" fill="none" xmlns="http://www.w3.org/2000/svg">
<path fill-rule="evenodd" clip-rule="evenodd" d="M22.2812 0.0887577C21.4639 0.284264 19.9569 0.854717 18.3966 1.55922C17.3654 2.02476 17.234 2.10891 17.1014 2.38832C16.967 2.6718 16.9734 2.94252 17.1214 3.23275C17.2706 3.52535 17.3226 3.55842 18.3912 4.04185C20.607 5.0442 22.2805 5.61528 23 5.61447C23.9403 5.61347 24.9456 4.99437 25.3838 4.14657L25.5938 3.74043L26.9219 3.74024L28.25 3.73999V6.06931V8.39864L27.9219 8.54907C27.7336 8.63535 27.4324 8.86168 27.215 9.08013C26.6007 9.69754 26.3769 10.3032 26.3757 11.3521L26.375 11.9929H29.1875H32L31.9993 11.3521C31.9981 10.3032 31.7743 9.69754 31.16 9.08013C30.9426 8.86168 30.6414 8.63535 30.4531 8.54907L30.125 8.39864V5.50411C30.125 2.72657 30.1199 2.59965 29.9992 2.36288C29.9182 2.20401 29.7854 2.07121 29.6266 1.99018C29.3955 1.87226 29.2609 1.86432 27.486 1.86432H25.592L25.4386 1.53608C25.2491 1.13069 24.6345 0.507531 24.229 0.309586C23.5707 -0.0117154 22.9809 -0.0785516 22.2812 0.0887577ZM0.485063 7.74528C0.34225 7.82075 0.2025 7.96455 0.125687 8.11516C0.001375 8.35894 0 8.46754 0 17.9325C0 27.4013 0.0013125 27.506 0.125813 27.7501C0.206813 27.909 0.339563 28.0418 0.498375 28.1228C0.742625 28.2474 0.8455 28.2487 11 28.2487C21.1545 28.2487 21.2574 28.2474 21.5016 28.1228C21.6604 28.0418 21.7932 27.909 21.8742 27.7501C21.9946 27.5138 22 27.3862 22 24.7447V21.986L22.7444 22.0068C23.4659 22.0271 23.4961 22.0335 23.7222 22.2168C24.1706 22.5802 24.1875 22.6564 24.1875 24.3113C24.1875 25.8928 24.2319 26.2197 24.5253 26.7989C24.7256 27.1944 25.1756 27.6877 25.5624 27.9361C26.4811 28.5257 27.8314 28.5257 28.7501 27.9361C29.3866 27.5274 29.9263 26.733 30.0622 26.005C30.0984 25.8106 30.125 24.4625 30.125 22.816V19.9637L30.4531 19.8133C30.8559 19.6287 31.4771 19.0136 31.6792 18.5993C31.9731 17.9967 31.9985 17.7712 31.9993 15.7599L32 13.8686H29.1875H26.375L26.3757 15.7599C26.3765 17.7663 26.4023 17.9969 26.6936 18.6043C26.8872 19.0077 27.517 19.6277 27.9219 19.8133L28.25 19.9637V22.8047C28.25 25.557 28.2459 25.6542 28.1196 25.9152C27.9183 26.3312 27.6816 26.4668 27.1562 26.4668C26.6309 26.4668 26.3942 26.3312 26.1929 25.9152C26.0725 25.6664 26.0625 25.5374 26.0625 24.2306C26.0625 23.4422 26.032 22.6686 25.9936 22.4841C25.7627 21.3729 24.8108 20.4207 23.7001 20.1897C23.5179 20.1518 23.0609 20.1208 22.6844 20.1208H22V14.2412C22 8.47192 21.9976 8.357 21.8742 8.11491C21.7932 7.95604 21.6604 7.82325 21.5016 7.74222C21.2573 7.61755 21.1573 7.61636 10.9869 7.61911C0.887125 7.62186 0.714938 7.62393 0.485063 7.74528ZM17.7516 10.8683C17.9104 10.9494 18.0432 11.0822 18.1242 11.241C18.2428 11.4736 18.25 11.6065 18.25 13.556C18.25 15.5054 18.2428 15.6383 18.1242 15.8709C18.0432 16.0298 17.9104 16.1626 17.7516 16.2436C17.5091 16.3673 17.3961 16.3695 10.9954 16.3695H4.48575L4.23644 16.2293C3.75925 15.961 3.74962 15.9076 3.75262 13.5428C3.75556 11.1959 3.75975 11.1724 4.22456 10.891L4.46875 10.7431L10.9869 10.7428C17.3965 10.7425 17.5091 10.7446 17.7516 10.8683ZM5.625 13.556V14.4938H11H16.375V13.556V12.6181H11H5.625V13.556ZM14.3141 18.9962C14.5914 19.1378 14.8125 19.4979 14.8125 19.8082C14.8125 20.1184 14.5914 20.4786 14.3141 20.6202C14.0768 20.7413 13.951 20.746 10.9954 20.746C7.9285 20.746 7.92287 20.7458 7.67394 20.6058C7.39562 20.4493 7.1875 20.1081 7.1875 19.8082C7.1875 19.5075 7.40869 19.1386 7.67256 18.9993C7.89587 18.8814 8.04325 18.8757 10.9869 18.8731C13.9539 18.8705 14.0766 18.875 14.3141 18.9962ZM5.19387 19.1998C5.752 19.5728 5.752 20.3561 5.19387 20.7291C4.74881 21.0266 4.10187 20.8523 3.8595 20.3696C3.55187 19.7572 3.99331 19.0579 4.6875 19.0579C4.88912 19.0579 5.04825 19.1025 5.19387 19.1998ZM17.8189 19.1998C18.0637 19.3635 18.2498 19.6936 18.2498 19.9645C18.2498 20.2353 18.0637 20.5655 17.8189 20.7291C17.3738 21.0266 16.7269 20.8523 16.4845 20.3696C16.1769 19.7572 16.6183 19.0579 17.3125 19.0579C17.5141 19.0579 17.6733 19.1025 17.8189 19.1998ZM5.19387 23.2638C5.752 23.6368 5.752 24.4201 5.19387 24.7931C4.74881 25.0905 4.10187 24.9162 3.8595 24.4336C3.55187 23.8212 3.99331 23.1219 4.6875 23.1219C4.88912 23.1219 5.04825 23.1664 5.19387 23.2638ZM17.8189 23.2638C18.0637 23.4274 18.2498 23.7576 18.2498 24.0284C18.2498 24.2993 18.0637 24.6295 17.8189 24.7931C17.3738 25.0905 16.7269 24.9162 16.4845 24.4336C16.1769 23.8212 16.6183 23.1219 17.3125 23.1219C17.5141 23.1219 17.6733 23.1664 17.8189 23.2638ZM14.3141 23.3728C14.5914 23.5143 14.8125 23.8745 14.8125 24.1847C14.8125 24.495 14.5914 24.8552 14.3141 24.9967C14.0769 25.1178 13.951 25.1226 11 25.1226C8.049 25.1226 7.92312 25.1178 7.68587 24.9967C7.04875 24.6715 7.03544 23.7748 7.66206 23.3954L7.90625 23.2475L10.9869 23.2472C13.9513 23.2469 14.0767 23.2517 14.3141 23.3728ZM2.5 30.6895C2.5 31.386 2.62525 31.6837 2.99837 31.8741C3.2245 31.9895 3.36512 32 4.6875 32C6.00988 32 6.1505 31.9895 6.37663 31.8741C6.74975 31.6837 6.875 31.386 6.875 30.6895V30.1243H4.6875H2.5V30.6895ZM15.125 30.6895C15.125 31.386 15.2502 31.6837 15.6234 31.8741C15.8495 31.9895 15.9901 32 17.3125 32C18.6349 32 18.7755 31.9895 19.0016 31.8741C19.3748 31.6837 19.5 31.386 19.5 30.6895V30.1243H17.3125H15.125V30.6895Z" fill="black"/>
</svg>
