<svg width="28" height="29" viewBox="0 0 28 29" fill="none" xmlns="http://www.w3.org/2000/svg">
<path fill-rule="evenodd" clip-rule="evenodd" d="M3.75754 0.1152C3.6286 0.185753 3.51 0.31439 3.43664 0.463315C3.3245 0.691009 3.32132 0.751928 3.34884 2.14818C3.37953 3.70634 3.42023 4.01456 3.72083 4.9641C4.07827 6.09316 4.6235 6.99986 5.49325 7.91154C6.55648 9.02604 7.69728 9.6783 9.21369 10.0387C9.63797 10.1395 9.94617 10.1595 11.4429 10.183L13.1797 10.2104V11.9896V13.7688H12.9081C12.5004 13.7688 11.4695 13.927 10.8781 14.0802C9.61412 14.4078 8.74191 14.9456 8.40477 15.6054C8.23874 15.9302 8.2376 16.5923 8.40248 16.9139C8.84367 17.7742 10.0632 18.3711 12.0036 18.6762C12.9102 18.8188 15.064 18.8209 15.9843 18.68C17.9205 18.3836 19.1551 17.7808 19.5973 16.9162C19.7619 16.5944 19.7623 15.9306 19.5981 15.6105C19.2511 14.9338 18.4167 14.4158 17.1408 14.085C16.5337 13.9276 15.5049 13.7688 15.0925 13.7688H14.8209V11.9896V10.2104L16.5577 10.1832C18.0391 10.16 18.367 10.1391 18.7869 10.0411C20.2833 9.69195 21.3956 9.05727 22.4807 7.93319C23.372 7.00983 23.9168 6.11084 24.2798 4.9641C24.5804 4.01456 24.6211 3.70634 24.6518 2.14818C24.6793 0.751474 24.6761 0.691066 24.5638 0.463032C24.3647 0.0587584 23.8846 -0.11 23.5024 0.0899261C23.4062 0.140304 23.0812 0.430221 22.7803 0.734247C21.9771 1.54585 21.7886 1.62491 20.4805 1.69931C19.1208 1.77661 18.2559 2.00419 17.2134 2.55892C15.9702 3.22041 14.774 4.41084 14.1918 5.56603C14.0439 5.8594 13.9456 5.9711 13.9456 5.8458C13.9456 5.76709 13.5026 5.03012 13.2483 4.68563C12.1382 3.1821 10.5522 2.19193 8.69399 1.84217C8.43825 1.79406 7.85975 1.73139 7.40844 1.70294C6.23405 1.62893 5.94636 1.49729 5.16557 0.676559C4.51814 -0.00403033 4.20431 -0.129154 3.75754 0.1152ZM4.67323 15.452C2.88621 15.5786 1.2546 16.1069 0.565541 16.782C0.132284 17.2065 0.026212 17.438 0.0246256 17.9623C0.0235862 18.3221 0.0457414 18.4267 0.169209 18.6442C0.65274 19.4962 1.90082 20.0935 3.77843 20.3715C4.12012 20.4221 4.89817 20.4784 5.50747 20.4964L6.61523 20.5293V17.9707V15.4122L5.78099 15.4224C5.32213 15.428 4.82367 15.4413 4.67323 15.452ZM21.3854 17.9623V20.5293L22.4931 20.4964C23.1024 20.4784 23.8805 20.4221 24.2222 20.3715C26.0857 20.0956 27.3504 19.4918 27.8282 18.6499C27.9547 18.4271 27.9772 18.3229 27.9772 17.9623C27.9772 17.6039 27.9544 17.497 27.8314 17.2803C27.3479 16.4283 26.0998 15.831 24.2222 15.553C23.8805 15.5024 23.1024 15.4462 22.4931 15.4281L21.3854 15.3952V17.9623ZM8.26741 19.6198C8.29564 20.1523 8.40116 20.4156 8.72446 20.7597C9.31057 21.3835 10.4133 21.8263 12.0036 22.0763C12.9102 22.2189 15.064 22.221 15.9843 22.0801C17.5613 21.8387 18.6501 21.4057 19.2543 20.7799C19.5957 20.4263 19.7044 20.1628 19.7332 19.6198C19.7468 19.3627 19.7444 19.1523 19.7277 19.1523C19.7111 19.1523 19.5541 19.2402 19.3789 19.3477C18.0937 20.1361 15.8697 20.5707 13.508 20.4948C11.4912 20.43 9.79929 20.0374 8.6755 19.3733C8.46976 19.2518 8.2882 19.1523 8.27206 19.1523C8.25587 19.1523 8.25379 19.3627 8.26741 19.6198ZM0.00586203 21.3179C0.0253915 21.7034 0.058214 21.8474 0.172601 22.0496C0.651099 22.8953 1.90525 23.4943 3.77843 23.7716C4.12012 23.8223 4.89817 23.8785 5.50747 23.8965L6.61523 23.9294V23.0537V22.1779L5.96086 22.202C4.62662 22.2513 2.80295 22.005 1.67943 21.6237C1.36619 21.5175 0.877739 21.307 0.593988 21.1562C0.310237 21.0053 0.0563541 20.8719 0.0298225 20.8598C0.00301741 20.8477 -0.00759522 21.0514 0.00586203 21.3179ZM27.7584 20.9741C26.6782 21.7213 24.0869 22.2777 22.0398 22.202L21.3854 22.1779V23.0537V23.9294L22.4931 23.8965C23.1024 23.8785 23.8805 23.8223 24.2222 23.7716C26.0812 23.4964 27.352 22.891 27.8248 22.0552C27.9422 21.8477 27.9751 21.7062 27.9944 21.3251C28.0076 21.0651 27.9968 20.8542 27.9704 20.8565C27.9441 20.8588 27.8487 20.9118 27.7584 20.9741ZM8.26741 23.0199C8.29564 23.5525 8.40116 23.8157 8.72446 24.1598C9.31057 24.7836 10.4133 25.2264 12.0036 25.4765C12.9102 25.619 15.064 25.6211 15.9843 25.4802C17.5613 25.2388 18.6501 24.8058 19.2543 24.18C19.5957 23.8264 19.7044 23.5629 19.7332 23.0199C19.7468 22.7628 19.7444 22.5524 19.7277 22.5524C19.7111 22.5524 19.5541 22.6403 19.3789 22.7478C18.0937 23.5362 15.8697 23.9708 13.508 23.895C11.4912 23.8301 9.79929 23.4375 8.6755 22.7734C8.46976 22.6519 8.2882 22.5524 8.27206 22.5524C8.25587 22.5524 8.25379 22.7628 8.26741 23.0199ZM0.00586203 24.718C0.0253915 25.1035 0.058214 25.2475 0.172601 25.4497C0.651099 26.2954 1.90525 26.8944 3.77843 27.1718C4.12012 27.2224 4.89817 27.2786 5.50747 27.2967L6.61523 27.3295V26.4538V25.578L5.96086 25.6021C5.60096 25.6155 4.94369 25.596 4.50031 25.559C2.92477 25.4272 1.72927 25.127 0.707171 24.6064C0.361166 24.4302 0.0563541 24.2752 0.0298225 24.262C0.0029627 24.2487 -0.00764992 24.4508 0.00586203 24.718ZM27.7584 24.3743C26.6782 25.1214 24.0869 25.6778 22.0398 25.6021L21.3854 25.578V26.4538V27.3295L22.4931 27.2967C23.1024 27.2786 23.8805 27.2224 24.2222 27.1718C26.0812 26.8965 27.352 26.2911 27.8248 25.4553C27.9422 25.2478 27.9751 25.1064 27.9944 24.7252C28.0076 24.4652 27.9968 24.2543 27.9704 24.2566C27.9441 24.2589 27.8487 24.3119 27.7584 24.3743ZM8.26763 26.3634C8.28273 26.6045 8.34077 26.8851 8.40816 27.0426C8.64892 27.6051 9.33157 28.1244 10.2604 28.4517C13.123 29.4603 17.8455 29.0179 19.2219 27.6122C19.5935 27.2327 19.7038 26.9756 19.7332 26.42C19.7468 26.1629 19.7444 25.9525 19.7277 25.9525C19.7111 25.9525 19.5541 26.0404 19.3789 26.1479C18.0861 26.941 15.8661 27.3721 13.4806 27.2934C11.4657 27.2269 9.73173 26.8186 8.63387 26.1521C8.45308 26.0423 8.29099 25.9525 8.27359 25.9525C8.2562 25.9525 8.25352 26.1374 8.26763 26.3634Z" fill="black"/>
</svg>
