<svg width="31" height="31" viewBox="0 0 31 31" fill="none" xmlns="http://www.w3.org/2000/svg">
<path fill-rule="evenodd" clip-rule="evenodd" d="M15.046 0.0281104C14.7647 0.0664035 14.2812 0.234905 14.0472 0.3761C13.9306 0.446417 13.6394 0.692809 13.3998 0.923561C12.8612 1.44253 12.6733 1.49752 12.1403 1.29197C11.1576 0.913072 10.6899 0.849085 10.0847 1.0107C9.24644 1.23456 8.5874 1.79381 8.24018 2.57606C7.88587 3.37438 7.85246 3.42409 7.5723 3.56889C7.35408 3.68172 7.20129 3.70853 6.77658 3.70853C5.60826 3.70853 4.70334 4.27256 4.23196 5.29468C4.05671 5.67457 3.89763 6.58361 3.96706 6.80804C3.98588 6.86867 3.98407 6.96419 3.96312 7.02017C3.92886 7.11171 3.72595 7.12201 1.96246 7.12201H0L0.0167075 8.03745L0.0334755 8.95288H15.5H30.9665L30.9833 8.03832L31 7.12369L28.9857 7.10737L26.9713 7.09098L26.9349 6.43932C26.8788 5.43402 26.5671 4.78781 25.8802 4.25264C25.4143 3.88969 25.0189 3.76147 24.209 3.71064C23.2471 3.65031 23.1819 3.6078 22.7931 2.78894C22.396 1.95263 22.0461 1.54618 21.4762 1.25926C20.6508 0.843623 19.9914 0.827424 19.0512 1.19968C18.2466 1.51825 18.1047 1.48989 17.4978 0.889177C16.7977 0.196178 15.9631 -0.0969473 15.046 0.0281104ZM0.00320832 15.4695V20.0933H1.62589C3.12188 20.0933 3.27836 20.083 3.63049 19.961C4.41017 19.6911 5.07187 18.9888 5.33532 18.1516C5.58532 17.3571 5.42249 16.3652 4.93434 15.709C4.75564 15.4688 4.75201 15.4267 4.89856 15.2907C4.96073 15.233 5.10377 14.9843 5.21637 14.7381C5.41002 14.3144 5.42103 14.2537 5.42103 13.6076C5.42103 12.9676 5.40886 12.8986 5.22629 12.5035C4.86375 11.7187 4.34752 11.2369 3.58854 10.9747C3.24797 10.8571 3.07496 10.8458 1.60931 10.8458H0.00320832V15.4695ZM6.41985 15.4695V20.0933H7.32786H8.23588V18.2624V16.4315H8.40307C8.5621 16.4315 8.61803 16.5295 9.53737 18.4175C10.0692 19.5099 10.5249 20.4036 10.5499 20.4036C10.6395 20.4036 12.1101 19.6291 12.1101 19.582C12.1101 19.5555 11.7291 18.7531 11.2635 17.7988L10.417 16.0638L10.683 15.8761C11.0449 15.6208 11.353 15.2381 11.584 14.7571C11.7687 14.3726 11.7771 14.3224 11.7771 13.6089C11.7771 12.8948 11.7688 12.8454 11.5825 12.4552C11.2239 11.7038 10.6628 11.1987 9.92533 10.9634C9.60365 10.8608 9.3577 10.8458 7.98835 10.8458H6.41985V15.4695ZM14.6381 10.9663C13.638 11.2941 12.914 12.193 12.7767 13.2776C12.745 13.5274 12.7183 15.1631 12.7173 16.9125L12.7154 20.0933H13.6234H14.5315V18.2624V16.4315H15.4395H16.3475V18.2624V20.0933H17.2574H18.1673L18.1503 16.5091L18.1332 12.9249L17.9342 12.494C17.5718 11.7095 17.066 11.239 16.3008 10.9747C15.8256 10.8106 15.1241 10.807 14.6381 10.9663ZM19.0715 15.4695V20.0933H19.9788H20.886L20.9019 17.8745L20.9178 15.6557L21.4618 17.8745L22.0057 20.0933H23.2627H24.5196V15.4695V10.8458H23.6116H22.7036L22.6981 13.0335L22.6926 15.2213L22.1943 13.2042C21.9203 12.0948 21.677 11.1103 21.6539 11.0165L21.6117 10.8458H20.3416H19.0715V15.4695ZM25.4276 15.473V20.1001L27.2017 20.0812L28.9757 20.0622L29.4308 19.8315C30.2378 19.4224 30.7907 18.6508 30.9331 17.7348C31.0134 17.2184 31.0137 13.8069 30.9334 13.2353C30.7821 12.1575 30.0598 11.2843 29.0542 10.9634C28.731 10.8603 28.4855 10.8458 27.0567 10.8458H25.4276V15.473ZM3.19694 12.8315C3.76669 13.1877 3.7794 14.0418 3.22025 14.3977C3.03168 14.5177 2.91618 14.5381 2.42458 14.5383L1.84951 14.5386L1.83274 13.6232L1.81603 12.7077L2.40781 12.708C2.89154 12.7082 3.03568 12.7307 3.19694 12.8315ZM9.63822 12.8629C10.0027 13.1433 10.1145 13.6904 9.88835 14.0874C9.70075 14.4167 9.43779 14.5305 8.79842 14.5592L8.23588 14.5845V13.6404V12.6964L8.85636 12.7176C9.36152 12.7348 9.5068 12.7618 9.63822 12.8629ZM15.9092 12.8315C16.2586 13.0499 16.347 13.279 16.3472 13.9662L16.3475 14.5729L15.4546 14.5558L14.5617 14.5386L14.544 14.0897C14.5342 13.8429 14.5547 13.5324 14.5895 13.3998C14.6552 13.1498 14.8965 12.8541 15.1065 12.7662C15.3275 12.6738 15.7061 12.7046 15.9092 12.8315ZM28.6712 12.8074C28.784 12.8623 28.9379 13.0089 29.0133 13.1332C29.1476 13.3546 29.1509 13.4025 29.1677 15.4075C29.1849 17.4355 29.1837 17.4583 29.0467 17.7334C28.8356 18.1574 28.6182 18.2557 27.8832 18.2593L27.2739 18.2624L27.2582 15.4851L27.2424 12.7077H27.8544C28.291 12.7077 28.5251 12.7363 28.6712 12.8074ZM3.30336 16.6177C3.56499 16.8686 3.65228 17.0973 3.61953 17.4463C3.59471 17.7111 3.55421 17.7924 3.34852 17.9891C3.08453 18.2415 2.75407 18.3226 2.15218 18.2825L1.84951 18.2624L1.83274 17.3414L1.81597 16.4205L2.47876 16.4415C3.08768 16.4608 3.15475 16.4751 3.30336 16.6177ZM0.0437058 21.9964C0.0214292 22.0192 0.00320832 22.4382 0.00320832 22.9275V23.8171H1.97057C3.80307 23.8171 3.93806 23.8245 3.94012 23.9257C3.94127 23.9854 3.96633 24.3106 3.99575 24.6484C4.06428 25.4349 4.31404 25.9939 4.81321 26.4779C5.33374 26.9826 5.78599 27.1684 6.71066 27.257C7.13337 27.2976 7.53368 27.3616 7.60027 27.3991C7.81353 27.5194 7.978 27.748 8.14308 28.1534C8.36215 28.6915 8.52989 28.9489 8.87881 29.2825C9.6361 30.0066 10.6941 30.2022 11.7166 29.8072C12.7058 29.4251 12.8129 29.4433 13.4966 30.1103C14.3748 30.9671 15.3225 31.2025 16.3851 30.8276C16.7931 30.6837 16.9948 30.5431 17.5006 30.05C17.7573 29.7997 17.9853 29.6364 18.1475 29.5865C18.416 29.504 18.4452 29.5106 19.2834 29.8424C19.5738 29.9574 19.7688 29.9868 20.2565 29.9893C20.8537 29.9923 20.877 29.987 21.3764 29.7325C22.0663 29.381 22.3467 29.0726 22.7622 28.2088C23.1824 27.3352 23.2349 27.2987 24.1372 27.2529C24.4973 27.2346 24.9282 27.1761 25.0947 27.1228C25.7733 26.9056 26.3717 26.3508 26.7092 25.6257C26.8654 25.2902 26.9012 25.128 26.9223 24.6594C26.9364 24.3497 26.9604 24.0335 26.9759 23.9567L27.0038 23.8171H29.0019H31L30.9833 22.9016L30.9665 21.9862L15.5254 21.9705C7.0327 21.962 0.0659219 21.9736 0.0437058 21.9964Z" fill="#181818"/>
</svg>
