<svg width="32" height="30" viewBox="0 0 32 30" fill="none" xmlns="http://www.w3.org/2000/svg">
<path fill-rule="evenodd" clip-rule="evenodd" d="M8.85198 0.0718603C7.05816 0.414449 5.93488 1.54785 5.56361 3.38996C5.41098 4.1472 5.45892 5.67433 5.65943 6.43907C6.1926 8.47309 7.4159 9.92019 8.9972 10.3874C9.45202 10.5218 10.2571 10.5249 10.7559 10.3944C12.3081 9.98796 13.5794 8.51438 14.1146 6.50135C14.2714 5.91128 14.2922 5.70651 14.2972 4.6963C14.3034 3.42046 14.2342 3.04161 13.844 2.21621C13.3478 1.16686 12.4781 0.462442 11.2767 0.136879C10.7212 -0.0136024 9.4747 -0.0470503 8.85198 0.0718603ZM8.56832 11.5464C7.84405 11.5849 6.38237 11.7744 5.52753 11.9407C2.21329 12.5852 0.45022 13.7601 0.0736809 15.5751C0.024138 15.8138 0 17.3935 0 20.3912V24.8521L0.22671 25.08L0.453421 25.3079H2.19209H3.93069L3.9491 21.716L3.96743 18.1241L4.15454 17.9623C4.38398 17.7639 4.59422 17.7568 4.82526 17.9396L5.00097 18.0784V21.6932V25.3079H8.43496H11.869V23.8674V22.4268L11.6253 22.1079C11.0045 21.2949 10.9152 20.7704 10.948 18.1268C10.9743 16.0104 10.9822 15.9679 11.4412 15.4571C11.5798 15.3029 11.8152 15.111 11.9644 15.0308C12.2249 14.8906 12.3314 14.8835 14.6362 14.8513L17.0366 14.8178L17.0753 14.2145C17.104 13.767 17.157 13.5214 17.2805 13.2632L17.447 12.915L16.9975 12.713C15.1985 11.9044 11.4903 11.3912 8.56832 11.5464ZM19.037 12.9007C18.7074 13.0544 18.3769 13.3969 18.2403 13.7264C18.1826 13.8651 18.1368 14.1697 18.1368 14.4135V14.8513H18.8036H19.4704V14.5879C19.4704 14.1011 19.4023 14.114 21.98 14.114C23.4381 14.114 24.3274 14.1394 24.4091 14.1833C24.5073 14.2362 24.5381 14.3248 24.5381 14.5544V14.856L25.2215 14.8369L25.905 14.8178L25.9278 14.5832C25.9929 13.9145 25.6303 13.2335 25.0562 12.9458L24.7119 12.7734L22.0078 12.7749C19.5158 12.7762 19.2828 12.786 19.037 12.9007ZM12.2696 16.1139C12.0091 16.3758 11.9888 16.5868 12.0141 18.7725C12.0355 20.6347 12.037 20.6522 12.2094 21.018C12.8558 22.3893 14.8311 23.1668 18.5977 23.5324C19.1628 23.5873 19.6444 23.6322 19.6678 23.6322C19.6912 23.6322 19.7506 23.5191 19.7999 23.3808C20.0091 22.7935 20.4546 22.3202 21.0707 22.031C21.3747 21.8883 21.5345 21.8589 22.0042 21.8594C22.4822 21.8599 22.6349 21.8893 22.9784 22.0473C23.4871 22.2809 23.9429 22.7398 24.1753 23.2521L24.3526 23.6428L24.662 23.6068C24.8323 23.587 25.1815 23.5532 25.4382 23.5315C26.9361 23.4053 28.5258 23.1036 29.5703 22.7473C30.6998 22.3621 31.5966 21.6498 31.8652 20.9246C32.0061 20.5441 32.0108 20.4522 31.9922 18.4222L31.9728 16.3148L31.7551 16.1193L31.5373 15.9238H29.638H27.7387V17.3C27.7387 18.7976 27.7023 18.9916 27.3517 19.3675C27.2529 19.4735 27.0519 19.6162 26.9052 19.6844C26.6538 19.8014 26.3732 19.8086 22.0202 19.81C17.4425 19.8115 17.3992 19.8102 17.0991 19.6684C16.9326 19.5898 16.7238 19.4298 16.6351 19.3129C16.2997 18.8707 16.2698 18.7035 16.2698 17.2665V15.9238H14.3643H12.4588L12.2696 16.1139ZM17.3367 17.2205C17.3367 18.3915 17.3485 18.5279 17.4586 18.6281C17.5695 18.729 17.9827 18.739 22.0214 18.739C25.9696 18.739 26.4738 18.7274 26.5671 18.6337C26.6551 18.5452 26.6718 18.3206 26.6718 17.2261V15.9238H22.0042H17.3367V17.2205ZM21.5042 23.0219C20.9806 23.2656 20.7373 23.6584 20.7373 24.2602C20.7373 25.1857 21.7674 25.8042 22.5986 25.3779C23.6437 24.8419 23.5271 23.3468 22.4111 22.9711C22.0899 22.863 21.8121 22.8786 21.5042 23.0219ZM12.9504 26.1381L12.9692 29.0502L13.1703 29.3379C13.2959 29.5174 13.5056 29.696 13.728 29.8128L14.0846 30L21.9618 29.9996C26.867 29.9994 29.9272 29.9746 30.0725 29.934C30.3883 29.8456 30.7781 29.5103 30.9579 29.1724C31.1032 28.8993 31.1064 28.8403 31.126 26.0643L31.146 23.2346L30.6359 23.4682C29.4379 24.0171 27.5314 24.4268 25.2049 24.6354C24.7831 24.6733 24.4178 24.7043 24.3932 24.7045C24.3686 24.7045 24.3126 24.8178 24.2689 24.956C24.0566 25.6276 23.5127 26.1868 22.8146 26.4516C22.281 26.6539 21.5072 26.6137 20.9842 26.3564C20.5254 26.1308 19.9915 25.56 19.8321 25.1247C19.7677 24.949 19.6952 24.7817 19.6709 24.7531C19.6467 24.7244 19.2691 24.6705 18.8318 24.6332C16.5223 24.4363 14.4194 23.9736 13.3172 23.4197L12.9318 23.226L12.9504 26.1381Z" fill="#181818"/>
</svg>
