<svg width="30" height="32" viewBox="0 0 30 32" fill="none" xmlns="http://www.w3.org/2000/svg">
<path fill-rule="evenodd" clip-rule="evenodd" d="M3.01589 1.3917L2.97732 2.78347L1.59569 5.61661C0.835812 7.17484 0.166756 8.56836 0.108914 8.71331C0.013689 8.95215 0.00352177 9.39011 0.000421996 13.3703C-0.00255379 17.2755 0.00823341 17.7917 0.097321 18.0164C0.181511 18.2288 0.593347 18.6049 2.67807 20.3736C5.22894 22.5378 5.45076 22.6943 5.84945 22.6115C6.57164 22.4616 6.99935 21.5317 6.61361 20.9502C6.53605 20.8333 5.7396 20.1442 4.84376 19.419C2.91006 17.8534 2.76406 17.6937 2.4769 16.8296C2.34714 16.4393 2.34106 16.2996 2.30703 12.9439C2.27188 9.47856 2.27231 9.46186 2.40436 9.18874C2.66152 8.657 3.22295 8.45063 3.71315 8.70749C4.26119 8.99469 4.23856 8.87771 4.28264 11.6557C4.30397 13.0036 4.32492 14.588 4.32914 15.1764C4.33627 16.1762 4.34594 16.2599 4.47625 16.4531C4.70154 16.7871 4.91543 16.9106 5.31958 16.9402C5.76427 16.9726 6.06724 16.846 6.30859 16.5269L6.47561 16.3061L6.50661 13.9198L6.5376 11.5335L6.85632 11.0059C7.3061 10.2614 7.59785 9.65266 7.80752 9.02115C8.46529 7.0401 8.2586 5.14249 7.14665 2.95338L6.69259 2.0595V1.02975V0H4.87352H3.05445L3.01589 1.3917ZM23.3074 1.02975V2.0595L22.8533 2.95338C21.3827 5.84864 21.4687 8.23324 23.1437 11.0059L23.4624 11.5336L23.4934 13.9198L23.5244 16.3061L23.6914 16.5269C23.9327 16.846 24.2357 16.9726 24.6804 16.9402C25.0846 16.9106 25.2984 16.7871 25.5237 16.4531C25.6545 16.2592 25.6637 16.1774 25.6708 15.1452C25.6749 14.5395 25.6959 12.9552 25.7173 11.6244C25.7614 8.8819 25.7395 8.99437 26.2868 8.70749C26.7777 8.45025 27.339 8.65175 27.5902 9.17523L27.7281 9.46268L27.6891 12.9107C27.6656 14.9798 27.6237 16.4684 27.5843 16.6331C27.4936 17.012 27.2506 17.5131 27.0065 17.8243C26.8939 17.968 26.0649 18.6831 25.1643 19.4134C24.2637 20.1438 23.4635 20.8362 23.3861 20.9521C23.0915 21.3933 23.2807 22.156 23.7563 22.4445C24.2812 22.7628 24.6072 22.6793 25.3722 22.0304C25.6857 21.7645 26.8101 20.8109 27.871 19.9114C29.4846 18.5431 29.8164 18.2339 29.9014 18.0197C29.9922 17.7907 30.0025 17.2989 29.9996 13.3703C29.9965 9.39011 29.9863 8.95215 29.8911 8.71331C29.8332 8.56836 29.1642 7.17484 28.4043 5.61661L27.0227 2.78347L26.9841 1.3917L26.9455 0H25.1265H23.3074V1.02975ZM14.1631 2.97552C14.0608 2.9896 13.6841 3.0327 13.3261 3.07123C12.4976 3.16044 11.2491 3.4756 10.4085 3.80778C9.46646 4.17999 9.52021 4.10286 9.68307 4.84816C9.7982 5.37527 9.82002 5.6706 9.82157 6.72487C9.82312 7.80936 9.80427 8.06221 9.67979 8.6231C9.4212 9.78828 8.94334 10.9893 8.32872 12.0191L8.11849 12.3714V13.3544V14.3374L8.41297 14.1659C8.57496 14.0716 9.20099 13.6622 9.80427 13.2564C10.9663 12.4746 11.1869 12.3821 11.5954 12.5056C11.9653 12.6174 12.1248 12.7994 12.4758 13.51C12.6645 13.8919 12.8687 14.2151 12.9661 14.2858C13.1204 14.398 13.1443 14.3997 13.2821 14.3086C13.4155 14.2204 13.4349 14.1519 13.4668 13.6543C13.5298 12.6727 13.7768 11.9534 14.1405 11.6921C14.3937 11.5101 14.9081 11.4593 15.1609 11.5912C15.2606 11.6433 15.5511 11.8625 15.8066 12.0785C16.714 12.8459 17.698 13.3858 18.9339 13.7943C19.6245 14.0226 20.82 14.2875 21.494 14.3616L21.8815 14.4042V13.436V12.4677L21.5088 11.8171C20.8785 10.7163 20.4665 9.62257 20.227 8.41391C20.0811 7.67736 20.0787 5.767 20.2227 5.06711C20.2931 4.72593 20.301 4.57529 20.2519 4.51492C20.1497 4.38899 19.1103 3.78745 18.6835 3.60716C18.1882 3.39784 17.4644 3.20717 16.7359 3.09388C16.1465 3.0023 14.5133 2.9271 14.1631 2.97552ZM15.3758 14.4037C15.4032 14.55 15.4833 14.9297 15.5537 15.2476C15.7739 16.2401 15.7064 16.4873 15.1448 16.7467C14.5386 17.0267 13.4069 16.9364 12.6457 16.5471C12.219 16.3289 11.6114 15.7345 11.2803 15.2115C11.1268 14.9691 10.9795 14.7691 10.9528 14.7671C10.9261 14.7651 10.689 14.9142 10.4258 15.0984C9.8088 15.5304 9.16801 15.9042 8.73845 16.0826C8.55091 16.1605 8.39009 16.2291 8.38104 16.235C8.37199 16.241 8.32339 16.4054 8.27304 16.6004C8.0852 17.3281 7.60523 18.0148 7.02061 18.3922L6.75961 18.5606L7.28825 18.9897C8.302 19.8123 8.66696 20.5705 8.60026 21.7153C8.56387 22.3403 8.39549 22.8229 8.05222 23.2862C7.75569 23.6864 7.23549 24.0961 6.83481 24.2449C6.67133 24.3056 6.51628 24.3736 6.49018 24.396C6.4208 24.4554 6.71039 25.5514 6.97325 26.2239C7.79872 28.3361 9.47068 30.2117 11.3912 31.1798C11.9452 31.4591 12.7493 31.7337 13.4501 31.8829C14.1835 32.039 15.8165 32.039 16.5499 31.8829C18.314 31.5073 19.7412 30.7007 21.0161 29.3588C22.2166 28.0952 23.0628 26.5087 23.4561 24.7844C23.5388 24.4219 23.5377 24.3872 23.4422 24.3594C23.1282 24.2678 22.5564 23.9248 22.293 23.67C21.6852 23.0821 21.385 22.373 21.3863 21.5287C21.3879 20.4641 21.749 19.7725 22.7044 19.0037L23.2485 18.5658L22.9835 18.3956C22.3536 17.9909 21.7595 17.1171 21.7566 16.5909C21.756 16.4976 21.7351 16.3899 21.7101 16.3517C21.685 16.3135 21.4274 16.2485 21.1376 16.2073C19.0649 15.9125 17.36 15.3416 15.8935 14.451C15.61 14.2787 15.3663 14.1379 15.352 14.1379C15.3377 14.1379 15.3484 14.2575 15.3758 14.4037ZM12.7781 20.5066L13.0161 20.7641L13.0157 21.5015C13.0154 22.1185 12.9962 22.2682 12.8985 22.4178C12.7135 22.701 12.4657 22.8325 12.1172 22.8325C11.5738 22.8325 11.2582 22.5114 11.1862 21.8854C11.116 21.2756 11.2008 20.7933 11.4231 20.5379C11.6713 20.2527 11.7977 20.2025 12.2047 20.2281C12.5059 20.247 12.5644 20.2755 12.7781 20.5066ZM18.2083 20.3407C18.5277 20.5399 18.655 20.8759 18.655 21.5196C18.655 22.4611 18.3448 22.8621 17.6512 22.8171C17.38 22.7996 17.2571 22.7579 17.1338 22.6417C16.8496 22.3737 16.7979 22.1989 16.7981 21.5071C16.7983 20.9745 16.8197 20.8274 16.9215 20.6589C17.1886 20.2168 17.7765 20.0714 18.2083 20.3407ZM13.5425 24.7098C13.6319 24.7441 13.852 24.9123 14.0315 25.0836C14.7406 25.7604 15.2541 25.7534 15.9995 25.0571C16.5487 24.544 17.062 24.5209 17.471 24.9909C17.8509 25.4276 17.7863 25.8932 17.2724 26.4212C16.5415 27.1722 15.9685 27.4255 15 27.4255C14.2666 27.4255 13.8601 27.3113 13.3613 26.9649C12.9005 26.645 12.4226 26.1377 12.3378 25.8782C12.1015 25.1558 12.8396 24.4401 13.5425 24.7098Z" fill="#181818"/>
</svg>
