<svg width="27" height="31" viewBox="0 0 27 31" fill="none" xmlns="http://www.w3.org/2000/svg">
<path fill-rule="evenodd" clip-rule="evenodd" d="M11.0643 0.0330754C10.0315 0.192149 9.26517 0.42799 8.4995 0.822282C6.97565 1.60713 5.79799 2.84511 5.04582 4.45287C4.83145 4.91092 4.78528 5.06667 4.85123 5.10848C4.97137 5.18462 5.8667 5.37602 6.47463 5.45556C8.81046 5.76104 11.5295 5.00444 13.3338 3.54688C14.0636 2.95738 14.0168 2.96403 14.5147 3.37874C15.625 4.30363 17.3648 5.10287 18.8049 5.34979L19.0873 5.39817L18.955 5.04105C17.9561 2.34504 15.6578 0.468832 12.853 0.0598646C12.3989 -0.00638145 11.4159 -0.0210567 11.0643 0.0330754ZM13.7304 5.95016C13.3746 6.19119 12.3319 6.7141 11.7394 6.94862C9.69485 7.75804 7.27108 7.94757 5.12472 7.46599C4.80918 7.39518 4.49789 7.31578 4.43289 7.28954C4.32685 7.24669 4.31484 7.2939 4.31518 7.75105C4.31632 9.20936 4.82781 10.9173 5.61622 12.0953C6.79058 13.8498 8.69112 15.0763 10.7269 15.3934C12.3745 15.65 13.8936 15.3853 15.3978 14.5797C17.5609 13.4209 19.0115 11.2868 19.3639 8.74488C19.4009 8.47837 19.4317 8.11239 19.4325 7.93151L19.4338 7.60271H19.1238C18.0537 7.60271 15.7724 6.83378 14.511 6.0479C14.0624 5.76845 14.0087 5.76173 13.7304 5.95016ZM8.46684 16.6811C6.35935 16.9579 4.41001 17.9522 2.86038 19.5407C1.47287 20.9629 0.606762 22.5996 0.184779 24.5969C0.0159045 25.3962 -0.0626603 27.7198 0.0589669 28.3185C0.248765 29.2531 0.939651 30.1981 1.73556 30.6117C2.50764 31.013 2.22868 30.9999 10.0323 30.9999C13.9781 30.9999 17.2064 30.9826 17.2064 30.9613C17.2064 30.94 17.1172 30.8076 17.0081 30.6671C16.7693 30.3593 16.5201 29.8547 16.3518 29.3386C16.2363 28.9842 16.2278 28.6378 16.2278 24.32V19.6821L16.4408 19.1157C16.6759 18.4902 16.9539 18.0289 17.3547 17.5989L17.6188 17.3155L17.3282 17.2055C16.466 16.8787 15.6728 16.706 14.6962 16.6325L14.0439 16.5834L13.499 17.6993L12.9541 18.8152L13.9051 22.2252C15.1608 26.7278 15.1787 26.4585 13.5084 28.1838C12.9623 28.748 12.4335 29.2542 12.3333 29.3087C12.0995 29.4359 11.6491 29.4359 11.4153 29.3087C11.3151 29.2542 10.7863 28.748 10.2401 28.1838C8.5699 26.4585 8.58779 26.7278 9.84348 22.2252L10.7944 18.8152L10.2541 17.7084L9.71362 16.6016L9.32592 16.6104C9.1127 16.6152 8.72609 16.6471 8.46684 16.6811ZM21.5493 17.8069C20.1219 18.0864 18.9993 18.7768 18.5485 19.6526C18.324 20.0886 18.3246 20.8688 18.5497 21.3062C18.9318 22.0486 19.9196 22.7278 21.0874 23.0513C21.5315 23.1742 21.8132 23.2008 22.6736 23.2008C23.534 23.2008 23.8157 23.1742 24.2597 23.0513C25.0536 22.8314 25.8792 22.3912 26.2924 21.9674C26.8101 21.4364 26.9565 21.1083 26.9565 20.4781C26.9565 19.8479 26.8101 19.5198 26.2924 18.9888C25.8747 18.5604 25.0415 18.1187 24.2597 17.9112C23.562 17.726 22.2253 17.6746 21.5493 17.8069ZM18.3674 26.4926C18.3874 28.7179 18.3899 28.7546 18.5482 29.0591C18.9353 29.8039 19.9206 30.4811 21.0874 30.8042C21.5315 30.9271 21.8132 30.9537 22.6736 30.9537C23.534 30.9537 23.8157 30.9271 24.2597 30.8042C25.44 30.4773 26.4077 29.8117 26.8003 29.0565C26.9569 28.7553 26.9599 28.7124 26.9798 26.4974L27 24.2444L26.2711 24.6085C23.9534 25.7659 21.3645 25.7645 19.0761 24.6045L18.3471 24.235L18.3674 26.4926Z" fill="#181818"/>
</svg>
