<svg width="43" height="40" viewBox="0 0 43 40" fill="none" xmlns="http://www.w3.org/2000/svg">
<path d="M42.4097 20.6803C42.3797 19.4603 42.2897 18.2203 42.0197 17.0303C41.5797 15.1103 40.5397 13.5303 38.5597 12.9003C36.3897 12.2103 34.4497 12.8603 32.6997 14.2103C32.6097 14.2803 32.5297 14.4203 32.5297 14.5203C32.5197 15.8603 32.5197 17.1903 32.5197 18.5203C33.1597 18.3903 33.7297 18.2203 34.3097 18.1703C35.0897 18.1003 35.8197 18.2603 36.2697 19.0003C36.7197 19.7303 36.9997 20.5403 37.0097 21.3903C37.0397 24.6603 37.0397 27.9303 37.0097 31.1903C36.9997 32.6303 36.2397 33.5903 34.8997 34.0503C34.7897 34.0903 34.6297 34.2503 34.6297 34.3503C34.6197 35.9603 34.6397 37.5703 34.6497 39.1803C34.6497 39.4503 34.7597 39.5703 35.0597 39.5703C37.9097 39.6003 40.7697 37.6303 41.7597 34.9203C42.4397 33.0603 42.5197 31.1203 42.5097 29.1703C42.4897 26.3603 42.4897 23.5203 42.4097 20.6803ZM36.7697 6.07031C38.1597 5.92031 39.5597 5.76031 40.9497 5.61031C41.1797 5.59031 41.2997 5.53031 41.2997 5.27031C41.2897 3.65031 41.2997 2.02031 41.2997 0.320312C39.0297 0.580312 36.8397 0.820312 34.6597 1.08031C32.1597 1.37031 29.7097 1.68031 27.2097 1.95031C27.1297 2.98031 27.0497 4.06031 26.9797 5.11031C26.9397 5.77031 26.9097 6.43031 26.8797 7.13031C28.2697 6.98031 29.5997 6.84031 30.9297 6.70031C32.8797 6.49031 34.8197 6.28031 36.7697 6.07031ZM31.2197 22.7003C31.2897 19.9103 31.3497 17.1203 31.4297 14.3403C31.4697 12.7503 31.5397 11.1603 31.5797 9.56031C31.5897 9.09031 31.5797 8.62031 31.5797 8.13031C31.3497 8.13031 31.1897 8.12031 31.0397 8.13031C29.7997 8.19031 28.5597 8.28031 27.3097 8.31031C26.8697 8.32031 26.7697 8.49031 26.7597 8.87031C26.7397 9.75031 26.6997 10.6203 26.6697 11.5003C26.5397 14.9503 26.4097 18.4103 26.2897 21.8603C26.2697 22.3203 26.2897 22.7803 26.2897 23.3203C27.8697 23.2703 29.3797 23.2203 30.8997 23.1703C31.2297 23.1603 31.2197 22.9403 31.2197 22.7003ZM33.1597 34.0003C31.9697 33.8703 31.3497 32.7203 31.3097 31.6003C31.2597 30.2503 31.2297 28.8903 31.2097 27.5403C31.2097 27.2003 31.1097 27.0603 30.7397 27.0703C29.4197 27.1103 28.0897 27.1403 26.7597 27.1503C26.3997 27.1503 26.3397 27.3003 26.3497 27.6103C26.3697 28.4703 26.3597 29.3303 26.3897 30.1903C26.4297 31.5103 26.3897 32.8503 26.5897 34.1503C26.8597 35.8103 27.6697 37.2803 29.0797 38.2503C30.3297 39.1103 31.7997 39.4503 33.4097 39.6403C33.4097 37.8003 33.4097 36.0403 33.3997 34.2703C33.4097 34.1803 33.2597 34.0103 33.1597 34.0003ZM0.139672 19.5903H4.44967C4.44967 18.3103 4.42967 17.0903 4.44967 15.8703C4.49967 13.3803 5.19967 12.6103 7.64967 12.3103C7.69967 12.3003 7.73967 12.2503 7.83967 12.1903V8.12031C4.91967 7.79031 1.70967 9.84031 0.659672 12.6903C-0.190328 14.9403 0.259672 17.2703 0.139672 19.5903ZM7.10967 30.1903C5.18967 30.1103 4.61967 29.5003 4.57967 27.5703C4.54967 26.1003 4.57967 24.6303 4.54967 23.1603C4.53967 22.5403 4.46967 21.9103 4.41967 21.2803H0.159672C0.159672 23.5603 0.0496722 25.7503 0.179672 27.9303C0.459672 32.4003 2.84967 34.9103 7.04967 35.4203C7.63967 35.4903 7.85967 35.3303 7.83967 34.7403C7.80967 33.4703 7.81967 32.1903 7.83967 30.9203C7.84967 30.3703 7.64967 30.2103 7.10967 30.1903ZM17.8197 14.3503C17.8297 15.2603 17.8297 16.1803 17.8397 17.0903C17.8397 17.7103 17.8397 18.3303 17.8397 18.9403H22.7397C22.7397 16.8303 22.8297 14.8303 22.7097 12.8503C22.6097 11.0803 21.7497 9.63031 20.2197 8.65031C18.6497 7.64031 16.8997 7.49031 15.0997 7.64031C14.9297 7.65031 14.6597 7.92031 14.6497 8.08031C14.6097 9.37031 14.6297 10.6703 14.6297 12.0003C15.0097 12.0203 15.2797 12.0403 15.5497 12.0503C17.1897 12.1103 17.7897 12.7203 17.8197 14.3503ZM8.72967 39.7303H13.5897V3.27031C11.9197 3.45031 10.3297 3.62031 8.72967 3.79031V39.7303ZM22.7797 20.6803C21.3497 20.6803 20.0297 20.7003 18.7097 20.6703C18.0897 20.6503 17.8897 20.8703 17.8897 21.4903C17.9097 23.2403 17.8497 24.9803 17.8597 26.7303C17.8697 28.9603 17.0097 30.1703 14.8797 30.3803C14.8097 30.3903 14.7397 30.4503 14.6797 30.4803V35.0403C18.8697 35.2703 21.5497 33.0403 22.3997 29.8103C23.2097 26.8103 22.5997 23.7603 22.7797 20.6803Z" fill="url(#paint0_linear_27_826)"/>
<defs>
<linearGradient id="paint0_linear_27_826" x1="2.74367" y1="20.0241" x2="42.8165" y2="20.0241" gradientUnits="userSpaceOnUse">
<stop offset="0.0344" stop-color="#273580"/>
<stop offset="0.2149" stop-color="#46317C"/>
<stop offset="0.6071" stop-color="#942673"/>
<stop offset="0.8615" stop-color="#CA1E6D"/>
</linearGradient>
</defs>
</svg>
