<svg width="34" height="34" viewBox="0 0 34 34" fill="none" xmlns="http://www.w3.org/2000/svg">
<path fill-rule="evenodd" clip-rule="evenodd" d="M15.3842 0.0412785C10.0627 0.594572 5.40298 3.48799 2.56981 7.99831C-0.665535 13.1489 -0.860766 19.824 2.06816 25.1536C3.39927 27.5758 5.30856 29.6486 7.6621 31.2265C9.24643 32.2888 11.6512 33.2941 13.4914 33.6636C14.9113 33.9486 15.4524 34.0003 17.0126 34C18.5842 33.9997 19.2281 33.9382 20.5513 33.6621C26.4037 32.4412 31.286 28.0607 33.171 22.3392C33.7796 20.4921 34 19.0733 34 17.0032C34 15.0015 33.7905 13.5929 33.233 11.8469C32.4046 9.2524 31.0366 6.99997 29.0967 5.03683C26.4385 2.34667 23.1574 0.691046 19.3732 0.130434C18.5575 0.00954192 16.1967 -0.0431527 15.3842 0.0412785ZM18.4423 5.32139C20.2188 5.80097 21.5818 6.91214 22.3662 8.5202C22.8243 9.45938 22.9608 10.0713 22.9599 11.1815C22.9594 11.8754 22.9278 12.2318 22.8358 12.5787C22.2939 14.6239 20.8625 16.1593 18.8627 16.8407C17.5337 17.2936 15.8951 17.2155 14.5905 16.637C13.2136 16.0265 11.98 14.7378 11.4383 13.3439C11.1231 12.5326 11.061 12.16 11.0673 11.115C11.0725 10.235 11.0942 10.0479 11.2505 9.53271C11.9251 7.30835 13.6206 5.74328 15.8822 5.25739C16.4435 5.13676 17.8926 5.17302 18.4423 5.32139ZM16.2163 8.32319C14.8816 8.69771 14.0134 9.93983 14.1036 11.3462C14.1595 12.2187 14.5593 12.9658 15.2521 13.4925C15.8033 13.9116 16.2051 14.0354 17.0126 14.0354C17.5753 14.0354 17.7818 14.0072 18.0766 13.8897C18.8114 13.597 19.4615 12.9462 19.7517 12.2128C19.9593 11.6883 19.9617 10.6746 19.7566 10.1263C19.473 9.36784 18.8084 8.69452 18.0579 8.40543C17.5931 8.22645 16.703 8.18666 16.2163 8.32319ZM12.092 17.2906C12.2565 17.375 12.5977 17.5724 12.85 17.7295C13.4458 18.1 14.2282 18.4324 15.0174 18.6504C15.6034 18.8122 15.7488 18.825 17.0126 18.8262C18.278 18.8275 18.4216 18.8151 19.0148 18.6535C19.8716 18.4201 20.6677 18.0697 21.3425 17.6292C22.2569 17.0322 22.7642 16.9529 23.38 17.3106C23.8941 17.6094 24.2358 18.4422 24.0705 18.9941C23.9837 19.2842 23.3091 19.9631 22.698 20.3754C21.6437 21.0867 20.1645 21.6081 18.7567 21.7648C18.5273 21.7903 18.3223 21.8391 18.3013 21.8732C18.2801 21.9074 19.31 22.9888 20.5898 24.2764C22.5394 26.2377 22.9286 26.6605 22.9899 26.8835C23.0952 27.2669 23.079 27.5085 22.9254 27.8482C22.6759 28.3998 22.2218 28.7427 21.6343 28.8233C21.0572 28.9024 20.9282 28.8067 18.9747 26.851C17.7221 25.5968 17.136 25.0538 17.0347 25.0538C16.9334 25.0538 16.3513 25.5936 15.1059 26.8423C13.1528 28.8007 13.0165 28.9003 12.3892 28.8296C11.672 28.7487 11.028 28.0408 11.028 27.3334C11.028 27.1385 11.0743 26.8677 11.1308 26.7317C11.1999 26.5656 11.9888 25.7273 13.5307 24.1816C15.8883 21.8181 15.9079 21.7937 15.4384 21.7937C15.1363 21.7937 13.9324 21.5272 13.2889 21.3179C12.2652 20.985 11.5795 20.6073 10.6827 19.8823C10.2016 19.4935 9.89762 19.0094 9.89762 18.6321C9.89762 18.0293 10.4114 17.294 10.934 17.149C11.2864 17.0512 11.731 17.1056 12.092 17.2906Z" fill="#F96600"/>
</svg>
