<svg width="13" height="13" viewBox="0 0 13 13" fill="none" xmlns="http://www.w3.org/2000/svg">
<path d="M12.4585 5.95831C12.3148 5.95831 12.1771 5.90124 12.0755 5.79966C11.9739 5.69808 11.9168 5.5603 11.9168 5.41664C11.9157 4.26772 11.4588 3.16619 10.6464 2.35378C9.83395 1.54137 8.73241 1.08446 7.58349 1.08331C7.43983 1.08331 7.30206 1.02624 7.20048 0.924659C7.09889 0.823077 7.04183 0.685302 7.04183 0.541643C7.04183 0.397984 7.09889 0.260209 7.20048 0.158627C7.30206 0.0570449 7.43983 -2.34105e-05 7.58349 -2.34105e-05C9.0196 0.0015537 10.3964 0.572743 11.4119 1.58822C12.4274 2.6037 12.9986 3.98054 13.0002 5.41664C13.0002 5.5603 12.9431 5.69808 12.8415 5.79966C12.7399 5.90124 12.6022 5.95831 12.4585 5.95831ZM10.8335 5.41664C10.8335 4.55469 10.4911 3.72804 9.88159 3.11855C9.2721 2.50905 8.44545 2.16664 7.58349 2.16664C7.43983 2.16664 7.30206 2.22371 7.20048 2.32529C7.09889 2.42688 7.04183 2.56465 7.04183 2.70831C7.04183 2.85197 7.09889 2.98974 7.20048 3.09133C7.30206 3.19291 7.43983 3.24998 7.58349 3.24998C8.15813 3.24998 8.70923 3.47825 9.11556 3.88458C9.52189 4.29091 9.75016 4.84201 9.75016 5.41664C9.75016 5.5603 9.80723 5.69808 9.90881 5.79966C10.0104 5.90124 10.1482 5.95831 10.2918 5.95831C10.4355 5.95831 10.5733 5.90124 10.6748 5.79966C10.7764 5.69808 10.8335 5.5603 10.8335 5.41664ZM12.016 12.0055L12.5089 11.4373C12.8226 11.1225 12.9988 10.6962 12.9988 10.2518C12.9988 9.80742 12.8226 9.38114 12.5089 9.06639C12.4921 9.0496 11.1888 8.04698 11.1888 8.04698C10.876 7.74924 10.4606 7.58345 10.0287 7.58405C9.5969 7.58466 9.1819 7.75161 8.86995 8.05023L7.83753 8.92014C6.9948 8.57136 6.22926 8.05953 5.5849 7.41405C4.94053 6.76857 4.43003 6.00215 4.0827 5.15881L4.94937 4.12964C5.24821 3.81774 5.41536 3.40266 5.41607 2.97069C5.41677 2.53873 5.25098 2.12311 4.95316 1.81023C4.95316 1.81023 3.94945 0.508601 3.93266 0.49181C3.62361 0.180757 3.2046 0.00378018 2.76614 -0.000882069C2.32769 -0.00554432 1.905 0.162482 1.58941 0.466893L0.966493 1.00856C-2.71359 5.27798 5.21099 13.1413 9.62124 13C10.0666 13.0026 10.5079 12.9159 10.9192 12.7451C11.3305 12.5743 11.7034 12.3228 12.016 12.0055Z" fill="url(#paint0_linear_27_815)"/>
<defs>
<linearGradient id="paint0_linear_27_815" x1="0.019043" y1="-0.000976562" x2="13.7894" y2="0.896845" gradientUnits="userSpaceOnUse">
<stop stop-color="#E03048"/>
<stop offset="0.515625" stop-color="#EF465D"/>
<stop offset="1" stop-color="#E03048"/>
</linearGradient>
</defs>
</svg>
