<svg width="34" height="34" viewBox="0 0 34 34" fill="none" xmlns="http://www.w3.org/2000/svg">
<path fill-rule="evenodd" clip-rule="evenodd" d="M15.4126 0.0394766C9.63481 0.596762 4.4742 4.09499 1.8591 9.22705C0.934256 11.0421 0.387801 12.7922 0.0887912 14.8967C-0.0437472 15.83 -0.0245185 18.2443 0.123855 19.2848C0.387335 21.1326 0.932526 22.8835 1.76808 24.5655C3.4258 27.9025 6.07404 30.5485 9.42031 32.2112C14.8449 34.9065 21.2557 34.536 26.3154 31.2345C28.2936 29.9436 30.1685 28.0298 31.4485 25.995C31.9349 25.2215 32.6694 23.718 33.003 22.8129C33.3392 21.9007 33.7311 20.3176 33.8765 19.2848C34.0238 18.2386 34.0437 15.8184 33.9126 14.8967C33.5198 12.1357 32.6436 9.7852 31.1889 7.58996C30.5703 6.65637 29.9524 5.90315 29.0917 5.03318C26.438 2.35113 23.137 0.687715 19.3624 0.130496C18.5485 0.0103557 16.2611 -0.0423677 15.4126 0.0394766ZM18.2935 11.6389C18.4376 11.712 18.6172 11.8565 18.6927 11.96C18.8249 12.1407 18.8303 12.2328 18.8334 14.3535C18.8369 16.6849 18.8738 17.0306 19.1391 17.2163C19.3188 17.3421 19.4328 17.2976 19.7832 16.965C20.5668 16.2211 21.5903 14.6079 22.2017 13.1532C22.3918 12.7008 22.6189 12.2591 22.7063 12.1718C22.9283 11.95 23.2531 11.9227 25.3522 11.9493C26.9126 11.9691 27.1752 11.9874 27.3624 12.0893C27.6581 12.2502 27.696 12.4629 27.524 12.9955C27.3184 13.632 26.9339 14.247 25.6563 15.9832C24.1896 17.9765 24.0607 18.219 24.2611 18.6077C24.3023 18.6875 24.8367 19.2615 25.4486 19.8832C26.5132 20.9646 27.2428 21.8472 27.518 22.3864C27.763 22.8661 27.6316 23.3067 27.1729 23.5438C26.9062 23.6815 25.7625 23.7276 24.3147 23.6588C22.7028 23.5822 22.6163 23.5389 21.2858 22.1406C20.2397 21.0412 19.9978 20.8472 19.6732 20.8472C19.2699 20.8472 19.148 21.0975 18.9284 22.3764C18.8072 23.0823 18.78 23.157 18.5736 23.3493C18.3746 23.5347 18.2904 23.5629 17.8083 23.6055C16.0499 23.7611 14.149 23.2421 12.7089 22.2133C11.2373 21.162 9.67008 19.1327 8.11801 16.2688C7.42411 14.9883 6.35476 12.6804 6.35476 12.4632C6.35476 12.3671 6.41683 12.2096 6.49268 12.1133L6.63054 11.9381H8.29293C9.27373 11.9381 10.0735 11.9679 10.2437 12.0107C10.6593 12.1152 10.8918 12.3989 11.2468 13.2346C12.019 15.052 13.438 17.162 13.9793 17.2977C14.3335 17.3865 14.482 17.1295 14.6153 16.1972C14.6959 15.6339 14.6427 13.5753 14.5377 13.1956C14.4525 12.8872 14.1692 12.6244 13.767 12.4805C13.5702 12.4102 13.4325 12.3181 13.4189 12.2476C13.3689 11.9881 13.7464 11.6588 14.2392 11.5321C14.349 11.5039 15.2472 11.4864 16.2353 11.4934C17.8856 11.5049 18.053 11.5168 18.2935 11.6389Z" fill="#4C75A3"/>
</svg>
