<svg width="28" height="28" viewBox="0 0 28 28" fill="none" xmlns="http://www.w3.org/2000/svg">
<path fill-rule="evenodd" clip-rule="evenodd" d="M12.946 0.0264261C9.8848 0.31965 7.44073 1.28906 5.18673 3.10404C2.37721 5.36639 0.585072 8.57095 0.0735632 12.247C-0.0355375 13.031 -0.0204287 15.1285 0.0999488 15.913C0.592024 19.1199 1.91152 21.7424 4.13952 23.9415C4.48193 24.2794 4.98375 24.7332 5.25472 24.9497C8.76571 27.7562 13.4309 28.6965 17.7906 27.4764C22.876 26.0532 26.8007 21.7694 27.7505 16.6051C27.89 15.8467 27.9995 14.84 27.9998 14.3125L28 13.9979H27.1905H26.381L26.3144 14.8871C26.0988 17.7693 24.9324 20.4152 22.9587 22.4998C21.945 23.5704 20.8237 24.3944 19.4568 25.0731C14.8272 27.372 9.24864 26.5311 5.48015 22.9663C0.745082 18.4871 0.31596 11.0639 4.50306 6.06375C8.55303 1.22745 15.6428 0.217057 20.8835 3.72934C21.5942 4.20559 22.0379 4.58034 22.7995 5.34724L23.5385 6.09144L22.3951 6.10626L21.2517 6.12104L20.8586 5.79602C17.9794 3.4156 14.1129 2.68027 10.6092 3.84682C5.53008 5.53793 2.45801 10.7888 3.47616 16.0388C3.5344 16.3391 3.59363 16.5963 3.60776 16.6104C3.64186 16.6445 3.61372 16.716 4.95485 13.1909L6.12578 10.1131H6.82078H7.51578L7.57047 10.2635C7.60047 10.3463 8.25573 12.0823 9.02644 14.1213C9.79721 16.1603 10.4278 17.8407 10.4278 17.8557C10.4278 17.8706 10.0366 17.8828 9.55837 17.8828H8.6889L8.42352 17.1715L8.15807 16.4601H6.80863H5.45913L5.19374 17.1715L4.9283 17.8828H4.47569C4.22672 17.8828 4.02303 17.9012 4.02308 17.9238C4.02308 17.9464 4.17943 18.2849 4.37053 18.6761C6.7154 23.4769 12.242 25.826 17.2949 24.1696C19.5934 23.4161 21.5949 21.8925 22.923 19.885C23.2096 19.4517 23.9489 18.0386 23.949 17.9238C23.9491 17.9012 23.0623 17.8828 21.9784 17.8828H20.0077V13.9166V9.95029L21.9538 9.93596L23.8999 9.92157L23.5919 9.29435C23.4225 8.94942 23.1508 8.46311 22.9882 8.21371L22.6925 7.76028H24.4435H26.1945L26.1803 4.92872L26.1661 2.09716L25.3587 2.082L24.5513 2.0669V3.41998V4.77305L23.8259 4.05999C23.427 3.66784 22.9282 3.21063 22.7174 3.04402C20.5426 1.32446 18.0285 0.319705 15.2219 0.0483672C14.6712 -0.00487156 13.4006 -0.0170733 12.946 0.0264261ZM15.9294 10.1141C16.4051 10.2641 16.7428 10.4332 17.2706 10.7856C17.4964 10.9364 17.6898 11.0667 17.7004 11.0753C17.711 11.0839 17.5159 11.389 17.2669 11.7534C16.9734 12.1828 16.7881 12.4058 16.7402 12.3874C16.6995 12.3718 16.5251 12.2635 16.3526 12.1468C15.9333 11.8631 15.7093 11.7518 15.382 11.6646C13.7939 11.2416 12.2216 12.6678 12.4982 14.2804C12.5872 14.7991 12.7896 15.2035 13.1395 15.5617C13.974 16.416 15.4026 16.5061 16.0882 15.7476C16.2744 15.5416 16.5036 15.1429 16.5829 14.8871L16.6211 14.7639H15.7141H14.8072V13.9432V13.1225H16.5937H18.3803L18.3507 13.9295C18.3182 14.8158 18.2142 15.3195 17.9401 15.9181C17.0843 17.7869 14.8877 18.4487 12.9217 17.4299C12.371 17.1445 11.6943 16.4947 11.3705 15.9403C10.5282 14.498 10.6729 12.6956 11.7358 11.3923C12.2482 10.7639 13.1438 10.2175 13.9587 10.036C14.4954 9.91648 15.4193 9.95308 15.9294 10.1141ZM21.6499 12.3291V13.0677H22.6627H23.6754V13.8885V14.7092H22.6627H21.6499V15.4762V16.2431L23.0592 16.2285L24.4683 16.2139L24.5343 15.8583C24.7356 14.7721 24.729 13.2219 24.518 12.0692L24.4304 11.5904H23.0402H21.6499V12.3291ZM6.79691 12.9978C6.76221 13.0539 6.10322 14.7653 6.10322 14.7993C6.10322 14.81 6.42346 14.8187 6.81487 14.8187C7.20627 14.8187 7.52624 14.8125 7.52591 14.805C7.52115 14.6953 6.82084 12.9591 6.79691 12.9978Z" fill="black"/>
</svg>
