<svg width="30" height="28" viewBox="0 0 30 28" fill="none" xmlns="http://www.w3.org/2000/svg">
<path fill-rule="evenodd" clip-rule="evenodd" d="M14.5496 0.0513068C14.2871 0.131631 13.9155 0.517713 13.8404 0.788187C13.802 0.926403 13.7784 1.82831 13.7782 3.16333L13.7779 5.31555L13.4803 5.04806C13.1426 4.74446 12.8235 4.63294 12.4419 4.68529C11.7377 4.78179 11.3073 5.46522 11.4995 6.1816C11.5608 6.41048 11.7346 6.60991 12.8637 7.74736C13.5753 8.46432 14.2496 9.10838 14.362 9.1786C14.5178 9.27592 14.657 9.30636 14.9462 9.30636C15.2354 9.30636 15.3746 9.27592 15.5304 9.1786C15.6428 9.10838 16.3171 8.46432 17.0287 7.74736C18.1578 6.60991 18.3316 6.41048 18.393 6.1816C18.5851 5.46522 18.1547 4.78179 17.4505 4.68529C17.0699 4.63312 16.7497 4.74452 16.4147 5.04572L16.1197 5.31094L16.1025 3.04416L16.0854 0.77738L15.9467 0.5544C15.6712 0.111243 15.066 -0.106713 14.5496 0.0513068ZM5.20279 4.72472C4.94027 4.80504 4.56867 5.19112 4.4936 5.4616C4.45517 5.59981 4.43156 6.50172 4.43139 7.83674L4.43104 9.98897L4.13352 9.72147C3.7958 9.41787 3.47667 9.30636 3.09509 9.3587C2.39092 9.4552 1.9605 10.1386 2.15263 10.855C2.21397 11.0839 2.38776 11.2833 3.51686 12.4208C4.2285 13.1377 4.90276 13.7818 5.01521 13.852C5.17096 13.9493 5.31017 13.9798 5.59939 13.9798C5.88862 13.9798 6.02783 13.9493 6.18357 13.852C6.29602 13.7818 6.97028 13.1377 7.68192 12.4208C8.81102 11.2833 8.98481 11.0839 9.04615 10.855C9.23829 10.1386 8.80786 9.4552 8.1037 9.3587C7.72311 9.30653 7.40286 9.41793 7.06784 9.71913L6.77288 9.98435L6.75571 7.71757L6.73854 5.45079L6.59991 5.22781C6.32441 4.78465 5.71915 4.5667 5.20279 4.72472ZM23.8964 4.72472C23.6339 4.80504 23.2623 5.19112 23.1873 5.4616C23.1488 5.59981 23.1252 6.50172 23.125 7.83674L23.1247 9.98897L22.8272 9.72147C22.4895 9.41787 22.1703 9.30636 21.7887 9.3587C21.0846 9.4552 20.6541 10.1386 20.8463 10.855C20.9076 11.0839 21.0814 11.2833 22.2105 12.4208C22.9222 13.1377 23.5964 13.7818 23.7089 13.852C23.8646 13.9493 24.0038 13.9798 24.293 13.9798C24.5823 13.9798 24.7215 13.9493 24.8772 13.852C24.9897 13.7818 25.6639 13.1377 26.3756 12.4208C27.5047 11.2833 27.6785 11.0839 27.7398 10.855C27.9319 10.1386 27.5015 9.4552 26.7973 9.3587C26.4168 9.30653 26.0965 9.41793 25.7615 9.71913L25.4665 9.98435L25.4494 7.71757L25.4322 5.45079L25.2936 5.22781C25.0181 4.78465 24.4128 4.5667 23.8964 4.72472ZM14.2021 11.7607C13.2967 11.9574 12.4685 12.674 11.4691 14.1252C10.5824 15.4128 10.0232 15.9049 9.10445 16.2062C8.81166 16.3023 8.42797 16.3144 4.78154 16.3432L0.779936 16.3749L0.556956 16.5135C0.434279 16.5897 0.263407 16.7588 0.177241 16.889C0.0466779 17.0862 0.0205067 17.1906 0.0205067 17.514C0.0205067 17.8374 0.0466779 17.9418 0.177241 18.1391C0.263407 18.2693 0.434279 18.4383 0.556956 18.5146L0.779936 18.6532L4.89838 18.6518L9.01682 18.6504L9.59352 18.4927C11.1286 18.0729 12.1162 17.2903 13.3405 15.5234C14.043 14.5096 14.434 14.092 14.7338 14.0358C15.3103 13.9277 15.6243 14.1846 16.5519 15.5234C17.7762 17.2903 18.7638 18.0729 20.2989 18.4927L20.8756 18.6504L24.994 18.6518L29.1125 18.6532L29.3355 18.5146C29.4581 18.4383 29.629 18.2693 29.7152 18.1391C29.8457 17.9418 29.8719 17.8374 29.8719 17.514C29.8719 17.1906 29.8457 17.0862 29.7152 16.889C29.629 16.7588 29.4581 16.5897 29.3355 16.5135L29.1125 16.3749L25.1109 16.3432C21.4645 16.3144 21.0808 16.3023 20.788 16.2062C19.8688 15.9048 19.3087 15.412 18.4229 14.1258C17.723 13.1093 16.9644 12.3154 16.4224 12.0322C15.7771 11.6949 14.9633 11.5953 14.2021 11.7607ZM0.763053 21.0848C0.49369 21.1628 0.127586 21.5477 0.050475 21.834C0.00765487 21.9932 -0.00776739 22.9191 0.00362405 24.6558L0.0205067 27.2406L0.159132 27.4636C0.235367 27.5862 0.404369 27.7571 0.534582 27.8433L0.771407 28H14.9419H29.1125L29.3355 27.8614C29.4581 27.7851 29.629 27.6161 29.7152 27.4859L29.8719 27.2491V24.5242V21.7992L29.7152 21.5624C29.629 21.4322 29.4581 21.2632 29.3355 21.1869L29.1125 21.0483L15.0338 21.0387C6.25875 21.0328 0.88281 21.0501 0.763053 21.0848ZM6.00831 23.3846C6.00831 23.4005 5.75233 23.9262 5.43944 24.553L4.87057 25.6925H3.59929H2.328V24.5242V23.3558H4.16816C5.18024 23.3558 6.00831 23.3688 6.00831 23.3846ZM14.1868 23.3846C14.1868 23.4005 13.9308 23.9262 13.6179 24.553L13.049 25.6925H10.2881C8.7696 25.6925 7.52717 25.6795 7.52717 25.6637C7.52717 25.6478 7.78316 25.1221 8.09605 24.4954L8.66492 23.3558H11.4259C12.9444 23.3558 14.1868 23.3688 14.1868 23.3846ZM22.3653 23.3846C22.3653 23.4005 22.1093 23.9262 21.7964 24.553L21.2275 25.6925H18.4666C16.9481 25.6925 15.7056 25.6795 15.7056 25.6637C15.7056 25.6478 15.9616 25.1221 16.2745 24.4954L16.8434 23.3558H19.6043C21.1228 23.3558 22.3653 23.3688 22.3653 23.3846ZM27.5644 24.5242V25.6925H25.7243C24.7122 25.6925 23.8841 25.6795 23.8841 25.6637C23.8841 25.6478 24.1401 25.1221 24.453 24.4954L25.0219 23.3558H26.2931H27.5644V24.5242Z" fill="black"/>
</svg>
