<svg width="26" height="26" viewBox="0 0 26 26" fill="none" xmlns="http://www.w3.org/2000/svg">
<path fill-rule="evenodd" clip-rule="evenodd" d="M12.1621 0.0245379C11.7138 0.0724377 10.8405 0.258449 10.3972 0.400473C9.9777 0.534877 8.45142 1.26033 8.20747 1.44126C8.11891 1.50694 8.20808 1.61036 9.47527 2.91117C10.2249 3.68082 10.848 4.31048 10.8598 4.31048C10.8716 4.31048 11.0573 4.14225 11.2725 3.93663C12.1123 3.13406 13.0615 2.94876 14.017 3.40074C14.3852 3.57491 14.4861 3.67305 17.9575 7.23247C21.68 11.0493 21.7506 11.1239 22.0116 11.5186C22.3132 11.9743 22.6152 12.6602 22.7601 13.2182C22.8576 13.5936 22.8694 13.8042 22.8891 15.5235C22.9011 16.5642 22.9216 17.4156 22.9348 17.4156C22.9479 17.4156 23.0965 17.3221 23.2648 17.2077C24.7252 16.2157 25.7006 14.6567 25.9474 12.9203C26.1728 11.335 25.6454 9.60343 24.5322 8.27296C24.2411 7.92506 19.5812 3.09841 18.8611 2.3988C17.6076 1.18114 16.1376 0.422162 14.4473 0.119982C14.0031 0.0405892 12.5718 -0.0191967 12.1621 0.0245379ZM23.3472 0.0976321C23.0553 0.251795 22.9531 0.500793 22.9531 1.05756V1.51675H22.4941C22.1342 1.51675 21.9917 1.53884 21.8346 1.619C21.6093 1.734 21.4297 2.02663 21.4297 2.27867C21.4297 2.53072 21.6093 2.82335 21.8346 2.93835C21.9917 3.0185 22.1342 3.0406 22.4941 3.0406H22.9531V3.49979C22.9531 4.0656 23.0549 4.30748 23.3581 4.4622C23.6119 4.59173 23.8178 4.59173 24.0716 4.4622C24.3748 4.30748 24.4766 4.0656 24.4766 3.49979V3.0406H24.9356C25.2955 3.0406 25.438 3.0185 25.5951 2.93835C25.8204 2.82335 26 2.53072 26 2.27867C26 2.02663 25.8204 1.734 25.5951 1.619C25.438 1.53884 25.2955 1.51675 24.9356 1.51675H24.4766V1.05756C24.4766 0.491751 24.3748 0.249865 24.0716 0.0951431C23.8214 -0.032505 23.5923 -0.0317431 23.3472 0.0976321ZM4.25095 5.3694C2.74864 6.92678 1.38298 8.38278 1.21611 8.605C-0.308293 10.6351 -0.395535 13.4123 0.999578 15.4954C1.47388 16.2036 2.1289 16.8521 2.80566 17.2834L3.09766 17.4695V15.773C3.09766 14.483 3.11624 13.9684 3.17515 13.6253C3.31226 12.8273 3.55525 12.2037 3.98755 11.5403C4.27898 11.093 4.7288 10.6147 7.89146 7.38851L9.81612 5.42523L8.78363 4.3726C8.2158 3.79364 7.57819 3.14402 7.36679 2.9289L6.98242 2.53788L4.25095 5.3694ZM12.7877 4.7143C12.7128 4.73777 12.6089 4.78795 12.5569 4.8258C12.5049 4.86364 11.3677 6.01466 10.0298 7.38358C8.69192 8.75251 7.11516 10.364 6.52585 10.9646C5.32904 12.1844 5.08879 12.5126 4.81508 13.3012L4.64765 13.7838L4.63069 15.8122C4.60901 18.4111 4.66634 18.9763 5.07736 20.215C5.69527 22.0772 6.99065 23.7112 8.68431 24.7648C9.65621 25.3693 10.786 25.7674 11.9822 25.9267C15.8651 26.4438 19.6605 24.0189 20.9228 20.2144C21.3197 19.0184 21.3779 18.4832 21.3785 16.0293C21.379 13.9313 21.3506 13.6428 21.08 12.9955C20.7803 12.2785 21.0209 12.5395 14.8304 6.2153C14.1193 5.48893 13.4795 4.85642 13.4084 4.80974C13.245 4.70226 12.9639 4.65903 12.7877 4.7143ZM10.4159 13.7591C11.4117 13.9466 12.2383 14.9326 12.2383 15.9329C12.2383 16.6452 11.5136 17.0015 10.9937 16.5449C10.8218 16.394 10.7518 16.2291 10.689 15.8275C10.6506 15.5815 10.3758 15.2994 10.1294 15.2532C9.90001 15.2101 9.56292 15.3339 9.37488 15.5302C9.27174 15.6379 9.22523 15.7541 9.19247 15.9857C9.14159 16.346 9.01083 16.5565 8.76581 16.6728C8.38058 16.8557 7.95107 16.6986 7.7607 16.3053C7.65984 16.0968 7.65487 16.0454 7.70336 15.7089C7.89501 14.3783 9.10086 13.5115 10.4159 13.7591ZM16.6329 13.7864C17.623 14.0443 18.3999 15.0723 18.3213 16.0206C18.2586 16.7774 17.409 17.0103 16.9507 16.3963C16.8998 16.328 16.8366 16.1402 16.8104 15.9789C16.7541 15.6328 16.622 15.4273 16.383 15.3139C16.1479 15.2023 15.9207 15.2102 15.6937 15.3378C15.4568 15.471 15.3436 15.6599 15.285 16.0197C15.2305 16.3545 15.0964 16.5604 14.8596 16.6728C14.4743 16.8557 14.0448 16.6986 13.8544 16.3053C13.7536 16.0968 13.7486 16.0454 13.7971 15.7089C13.9952 14.3332 15.31 13.4419 16.6329 13.7864ZM0.394113 18.3839C0.179715 18.4971 0 18.7968 0 19.0411C0 19.4276 0.375324 19.803 0.761719 19.803C0.847742 19.803 1.00831 19.757 1.11851 19.7007C1.34382 19.5857 1.52344 19.2931 1.52344 19.0411C1.52344 18.789 1.34382 18.4964 1.11851 18.3814C0.868309 18.2537 0.639133 18.2545 0.394113 18.3839ZM11.8263 19.9016C12.0737 20.0279 12.1826 20.1972 12.2388 20.543C12.2967 20.8984 12.4107 21.0877 12.6469 21.2205C12.8739 21.3481 13.1011 21.356 13.3361 21.2444C13.573 21.1319 13.7071 20.926 13.7616 20.5913C13.8208 20.2275 13.9336 20.0424 14.1811 19.9033C14.5464 19.6979 15.0229 19.8497 15.2027 20.2287C15.4485 20.7468 15.1355 21.6925 14.536 22.2429C13.2619 23.413 11.233 22.7876 10.7906 21.0885C10.6888 20.6978 10.6952 20.4852 10.816 20.2356C11.0034 19.8484 11.4394 19.7042 11.8263 19.9016ZM23.3472 19.9077C23.0553 20.0619 22.9531 20.3109 22.9531 20.8677V21.3268H22.4941C22.1342 21.3268 21.9917 21.3489 21.8346 21.4291C21.6093 21.5441 21.4297 21.8367 21.4297 22.0888C21.4297 22.3408 21.6093 22.6334 21.8346 22.7485C21.9917 22.8286 22.1342 22.8507 22.4941 22.8507H22.9531V23.3099C22.9531 23.6698 22.9752 23.8124 23.0553 23.9695C23.1703 24.1949 23.4629 24.3746 23.7148 24.3746C23.9668 24.3746 24.2594 24.1949 24.3743 23.9695C24.4545 23.8124 24.4766 23.6698 24.4766 23.3099V22.8507H24.9356C25.2955 22.8507 25.438 22.8286 25.5951 22.7485C25.8204 22.6334 26 22.3408 26 22.0888C26 21.8367 25.8204 21.5441 25.5951 21.4291C25.438 21.3489 25.2955 21.3268 24.9356 21.3268H24.4766V20.8677C24.4766 20.3019 24.3748 20.06 24.0716 19.9052C23.8214 19.7776 23.5923 19.7784 23.3472 19.9077ZM1.91755 21.5332C1.62566 21.6873 1.52344 21.9363 1.52344 22.4931V22.9523H1.06437C0.704539 22.9523 0.562047 22.9744 0.40493 23.0545C0.179613 23.1695 0 23.4622 0 23.7142C0 23.9663 0.179613 24.2589 0.40493 24.3739C0.562047 24.4541 0.704539 24.4761 1.06437 24.4761H1.52344V24.9353C1.52344 25.2953 1.54553 25.4378 1.62566 25.595C1.74063 25.8203 2.03318 26 2.28516 26C2.53713 26 2.82968 25.8203 2.94465 25.595C3.02479 25.4378 3.04688 25.2953 3.04688 24.9353V24.4761H3.50594C4.07159 24.4761 4.31341 24.3744 4.46809 24.0711C4.59758 23.8172 4.59758 23.6112 4.46809 23.3573C4.31341 23.0541 4.07159 22.9523 3.50594 22.9523H3.04688V22.4931C3.04688 21.9273 2.94511 21.6854 2.64195 21.5307C2.39175 21.403 2.16257 21.4038 1.91755 21.5332Z" fill="black"/>
</svg>
