<svg width="20" height="26" viewBox="0 0 20 26" fill="none" xmlns="http://www.w3.org/2000/svg">
<path fill-rule="evenodd" clip-rule="evenodd" d="M0.484856 0.0701047C0.29714 0.153105 0.126879 0.332008 0.054457 0.52234C0.0165872 0.621748 0 3.49598 0 9.94691V19.2285L0.114834 19.454C0.182816 19.5875 0.302499 19.7214 0.408299 19.7822C0.583205 19.8828 0.676858 19.8853 4.91235 19.899L9.23778 19.9131V10.2585C9.23778 0.682601 9.23696 0.602242 9.13504 0.403427C9.06889 0.274355 8.96049 0.166464 8.8308 0.100633C8.6339 0.000666747 8.53963 -0.00156827 4.63369 0.000361977C1.41782 0.00198745 0.60806 0.0156007 0.484856 0.0701047ZM4.96676 6.20396C5.02805 6.23657 5.40262 6.49893 5.79913 6.78694C6.60746 7.37415 6.71663 7.5146 6.67182 7.91014C6.65768 8.0351 6.60174 8.1976 6.54754 8.2712C6.34258 8.54961 5.89018 8.66375 5.61412 8.50669C5.54394 8.46676 5.47014 8.43329 5.45013 8.43227C5.43013 8.43131 5.40716 9.51463 5.3991 10.8396C5.38486 13.1819 5.38154 13.2527 5.27921 13.389C4.92144 13.8657 4.30608 13.8775 3.9947 13.4137L3.87884 13.2411V10.8103V8.3795L3.68822 8.48119C3.311 8.68239 2.84284 8.54504 2.65461 8.17784C2.39784 7.67684 2.54355 7.43972 3.55292 6.71614C4.3121 6.17191 4.36212 6.14468 4.60266 6.14468C4.74158 6.14468 4.90541 6.17135 4.96676 6.20396ZM10.7689 15.7725C10.7689 25.3216 10.7697 25.402 10.8716 25.6008C10.9381 25.7305 11.0462 25.8378 11.1776 25.9045C11.3775 26.006 11.447 26.0074 15.4348 25.9941C19.439 25.9806 19.4906 25.9792 19.6298 25.8757C19.7073 25.8181 19.818 25.7079 19.8759 25.6307L19.9812 25.4905L19.9943 16.1433C20.0072 6.98805 20.0054 6.79152 19.9085 6.57335C19.8489 6.43935 19.742 6.30962 19.6401 6.2478C19.4736 6.14682 19.3972 6.14504 15.1198 6.14489L10.7689 6.14468V15.7725ZM15.7185 12.3292C15.8162 12.378 15.9483 12.4956 16.012 12.5906L16.1278 12.7632V15.194V17.6248L16.3185 17.5231C16.6957 17.3219 17.1638 17.4592 17.3521 17.8264C17.5708 18.2531 17.4298 18.5886 16.8608 18.996C16.6463 19.1497 16.2876 19.4068 16.0638 19.5675C15.6918 19.8345 15.6338 19.8596 15.3891 19.8596C15.0894 19.8596 15.1308 19.8827 14.1304 19.1582C13.4386 18.6572 13.3208 18.5098 13.3208 18.1451C13.3208 17.6272 13.9457 17.2563 14.4111 17.4979C14.4916 17.5396 14.5662 17.5738 14.577 17.5738C14.5878 17.5738 14.5967 16.5393 14.5967 15.2749C14.5967 13.9318 14.6174 12.9042 14.6465 12.8032C14.7781 12.3465 15.2956 12.1177 15.7185 12.3292Z" fill="black"/>
</svg>
