<svg width="28" height="28" viewBox="0 0 28 28" fill="none" xmlns="http://www.w3.org/2000/svg">
<path fill-rule="evenodd" clip-rule="evenodd" d="M22.0683 0.0450992C21.9243 0.104099 21.7885 0.258933 21.7178 0.444963C21.6123 0.722394 21.7047 0.918222 22.1699 1.4027L22.6093 1.86041L20.5201 3.94955L18.431 6.03868L17.0205 4.63839C15.5316 3.16016 15.4466 3.09761 15.1038 3.22754C14.7519 3.36081 14.5925 3.66905 14.7027 4.00291C14.7398 4.11566 15.0447 4.46418 15.5282 4.9468L16.2949 5.71194L10.1124 11.8969C6.60864 15.4022 3.9052 18.1487 3.87275 18.236C3.74884 18.5698 3.86 19.4925 4.11373 20.2365C4.27551 20.7109 4.67297 21.4768 4.91783 21.786L5.09089 22.0045L2.56878 24.5312C0.384691 26.7193 0.0418563 27.0846 0.0104407 27.2578C-0.0681529 27.6912 0.308834 28.0682 0.742248 27.9896C0.915362 27.9581 1.27976 27.6163 3.46008 25.44L5.97797 22.9267L6.30608 23.1524C6.76692 23.4694 7.64924 23.8775 8.16666 24.0128C8.65765 24.1412 9.46773 24.2194 9.7063 24.1614C9.81636 24.1346 10.9921 22.9996 13.6398 20.3639C15.7168 18.2962 18.5182 15.5087 19.8651 14.1693L22.3141 11.7341L23.0669 12.4803C23.4809 12.8907 23.8735 13.2537 23.9392 13.2871C24.1797 13.4091 24.4459 13.3618 24.6461 13.1616C24.8058 13.002 24.8322 12.9384 24.8322 12.7144V12.4531L23.3694 10.9838L21.9065 9.51437L23.9957 7.42518L26.0849 5.33599L26.5492 5.78178C26.8387 6.0597 27.0819 6.24573 27.1953 6.27583C27.6577 6.39876 28.0925 5.98915 27.9818 5.53488C27.9349 5.3425 22.8029 0.180066 22.549 0.0698375C22.353 -0.0152143 22.2311 -0.0215084 22.0683 0.0450992ZM14.3449 9.73302C14.4205 9.76181 14.5862 9.87877 14.7131 9.99299C15.2957 10.5173 15.4064 10.9079 15.0682 11.2461C14.911 11.4033 14.8435 11.4321 14.6324 11.4321C14.4018 11.4321 14.3549 11.4061 14.0213 11.0941C13.8226 10.9083 13.6246 10.6878 13.5815 10.6043C13.3169 10.0927 13.8101 9.52975 14.3449 9.73302ZM12.0033 12.4114C12.247 12.592 13.114 13.4714 13.2489 13.6746C13.3643 13.8485 13.3636 14.1369 13.2474 14.3338C13.115 14.5579 12.9413 14.6302 12.5772 14.6128C12.3929 14.6041 11.0569 13.281 10.9909 13.0419C10.9226 12.7944 10.9752 12.6 11.1606 12.4146C11.3843 12.1909 11.7043 12.1897 12.0033 12.4114ZM9.32121 14.859C9.54993 14.9675 10.0966 15.5483 10.1427 15.7316C10.2474 16.1491 9.95401 16.5221 9.52076 16.5221C9.27918 16.5221 9.25099 16.5044 8.84084 16.0942C8.45969 15.7131 8.41295 15.644 8.41295 15.4621C8.41295 15.1852 8.53506 14.9693 8.75217 14.8623C8.98089 14.7495 9.08932 14.7489 9.32121 14.859ZM7.49407 18.0978C8.21154 18.8152 8.24876 18.8633 8.24876 19.0708C8.24876 19.5397 7.81825 19.85 7.41072 19.6749C7.14741 19.5617 5.91635 18.2838 5.87218 18.0778C5.79101 17.6993 6.09034 17.3431 6.48954 17.3431C6.73758 17.3431 6.7447 17.3484 7.49407 18.0978Z" fill="black"/>
</svg>
