<svg width="26" height="27" viewBox="0 0 26 27" fill="none" xmlns="http://www.w3.org/2000/svg">
<path fill-rule="evenodd" clip-rule="evenodd" d="M10.5158 0.078794C9.82563 0.450665 10.0693 1.5198 10.8439 1.51906C11.3717 1.51859 11.7292 0.936592 11.5043 0.444123C11.3275 0.0569533 10.87 -0.112074 10.5158 0.078794ZM17.9213 1.24463C17.1345 1.67168 17.1462 2.81409 17.9417 3.24152C18.5011 3.54212 19.238 3.21736 19.4435 2.5797C19.6775 1.85348 19.1306 1.09723 18.3715 1.09723C18.2732 1.09723 18.0706 1.16355 17.9213 1.24463ZM5.07678 1.69727C3.98499 2.09779 3.31857 3.25207 3.50744 4.41558C3.80003 6.21791 5.76915 7.08837 7.22156 6.05743C8.39895 5.22168 8.5668 3.39688 7.56549 2.31762C6.93252 1.63539 5.92811 1.38501 5.07678 1.69727ZM5.08373 3.00961C5.73772 3.35288 5.82286 4.45225 5.23524 4.96598C4.6867 5.44563 3.91594 4.90003 3.91477 4.03126C3.91391 3.43671 4.30389 2.92467 4.77951 2.89565C4.82246 2.89307 4.95934 2.94435 5.08373 3.00961ZM4.51149 3.51737C4.07222 4.05975 4.57541 5.05703 5.03296 4.551C5.2163 4.34821 5.23727 3.82984 5.07236 3.57672C4.90624 3.32176 4.68853 3.2987 4.51149 3.51737ZM21.9512 3.43972C21.4671 3.60363 21.0304 3.99217 20.8018 4.46232C20.4242 5.23877 20.5408 6.10459 21.1085 6.74182C22.0639 7.81407 23.6859 7.55061 24.2903 6.22508C24.4361 5.90512 24.4515 5.82399 24.4515 5.3704C24.4515 4.93707 24.433 4.82839 24.3154 4.56757C24.1265 4.14869 23.7687 3.76891 23.3717 3.5658C23.0922 3.42289 22.9769 3.39524 22.6048 3.38216C22.3301 3.37245 22.0863 3.39393 21.9512 3.43972ZM12.9948 3.84256C11.7004 3.99956 10.4937 4.63515 9.56908 5.64689C8.90682 6.37153 8.43683 7.24785 8.19729 8.20456C8.01192 8.94493 7.97953 9.99486 8.11945 10.7281C8.44546 12.4365 9.35406 13.7812 10.7982 14.6926C12.6784 15.8793 15.196 15.7549 16.9613 14.3879C19.6486 12.3071 20.0606 8.43331 17.8752 5.79497C17.4148 5.23914 16.8345 4.78429 16.125 4.42313C15.0829 3.89273 14.0939 3.7093 12.9948 3.84256ZM23.698 4.42787C23.9427 4.66517 24.0321 4.92615 24.0118 5.34397C23.9974 5.6405 23.966 5.76443 23.867 5.91457C23.6917 6.18072 23.4784 6.29055 23.2098 6.25315C22.4776 6.15107 22.2978 4.83393 22.9537 4.37702C23.1797 4.2196 23.5063 4.24191 23.698 4.42787ZM23.172 4.76387C22.9225 4.9454 22.9007 5.51447 23.1345 5.74264C23.2378 5.84356 23.2768 5.85342 23.3797 5.80468C23.636 5.68334 23.6842 5.06278 23.4568 4.8113C23.3219 4.66211 23.3137 4.66074 23.172 4.76387ZM4.11791 9.30556C3.47575 9.59492 3.27353 10.4729 3.71951 11.0351C4.00962 11.4008 4.5353 11.5497 4.95528 11.385C5.3249 11.24 5.63846 10.7555 5.63846 10.3294C5.63846 9.54607 4.8149 8.99151 4.11791 9.30556ZM21.658 10.9794C21.4489 11.1966 21.3936 11.4542 21.4996 11.7177C21.6496 12.0907 22.1742 12.251 22.4656 12.0129C22.9835 11.5895 22.7322 10.8042 22.0787 10.8042C21.8609 10.8042 21.8037 10.828 21.658 10.9794ZM16.9738 11.1758C17.3463 11.2832 17.6697 11.7113 17.6724 12.1003C17.6764 12.6919 17.1926 13.3542 16.6327 13.5233C16.0915 13.6868 15.6019 13.5066 15.3845 13.064C15.2981 12.8879 15.2805 12.7743 15.296 12.4906C15.328 11.902 15.6902 11.426 16.2623 11.2206C16.5733 11.109 16.7121 11.1002 16.9738 11.1758ZM16.2287 11.7155C16.1181 11.7806 15.9581 11.9365 15.8733 12.0621C15.7465 12.2494 15.7188 12.3425 15.7188 12.5806C15.7188 12.8331 15.7373 12.8873 15.8613 12.9981C16.1182 13.2277 16.5878 13.1589 16.9036 12.8452C17.1368 12.6135 17.225 12.4176 17.225 12.1314C17.225 11.9254 17.2006 11.865 17.0677 11.7416C16.8639 11.5524 16.5237 11.5419 16.2287 11.7155ZM4.87913 16.5C4.06054 16.6085 3.13503 16.9149 2.40123 17.3205C1.96754 17.5602 1.29035 18.0171 0.997048 18.2678L0.846612 18.3964L1.2509 18.2666C2.41118 17.8941 3.48708 17.7393 4.59988 17.7846C5.74513 17.8313 6.33037 17.9898 7.84925 18.6647C9.62071 19.4518 10.7719 19.7144 12.1648 19.6489C13.2271 19.599 13.5072 19.5238 16.2066 18.5645C17.9419 17.9477 19.3141 17.7242 20.999 17.7837C22.2827 17.8291 23.596 18.0365 24.7295 18.3727C24.9661 18.4429 25.1673 18.4924 25.1766 18.4828C25.2113 18.4467 24.3318 17.8229 23.8422 17.5362C22.5403 16.7738 21.1313 16.4004 19.8059 16.4665C19.0194 16.5057 18.4577 16.639 16.9886 17.1349C14.8617 17.8529 13.9715 18.01 12.2917 17.9637C10.7449 17.921 10.0719 17.7804 8.07772 17.0831C7.4215 16.8537 6.71324 16.6301 6.50381 16.5864C6.00848 16.483 5.29438 16.445 4.87913 16.5ZM3.43214 18.2457C2.4488 18.3512 1.23654 18.6848 0.373169 19.0874L0.00507713 19.2591V19.9423C0.00507713 20.318 0.0221871 20.6165 0.0431556 20.6056C1.5071 19.8427 1.97338 19.6524 2.91879 19.4321C4.06196 19.1657 5.23468 19.1658 6.38942 19.4324C7.02366 19.5788 7.76639 19.8321 9.44966 20.4758C11.3219 21.1918 12.3695 21.4195 13.7895 21.4194C15.255 21.4192 16.1201 21.236 18.1301 20.5001C18.8424 20.2394 19.6764 19.9634 19.9836 19.8868C20.5011 19.7578 20.626 19.7475 21.6844 19.7469C22.6764 19.7463 22.9037 19.7622 23.4107 19.8678C24.1532 20.0225 24.9396 20.256 25.4986 20.4878C25.7394 20.5877 25.9508 20.6694 25.9682 20.6694C25.9857 20.6694 26 20.351 26 19.9617V19.2541L25.2765 19.0119C22.6184 18.1221 19.9139 17.9731 17.5678 18.5874C17.1097 18.7074 16.5076 18.9122 14.9572 19.4754C13.5638 19.9817 12.8067 20.1154 11.562 20.0748C10.159 20.0291 9.30106 19.8039 7.59539 19.0337C6.80778 18.6779 6.07926 18.4214 5.57419 18.3218C5.05698 18.2199 4.01738 18.1829 3.43214 18.2457ZM3.71138 19.7207C2.62742 19.8775 1.56452 20.2592 0.462019 20.8875L0.0304628 21.1334L0.0152314 21.3993L0 21.6651L0.544624 21.3696C1.81269 20.6815 3.02577 20.3262 4.32064 20.2635C5.5063 20.2062 6.59378 20.4263 8.28081 21.0652C10.8711 22.046 11.4877 22.2323 12.6583 22.3877C13.1631 22.4547 13.5303 22.4694 14.1195 22.4463C15.4632 22.3935 16.2375 22.2166 18.0795 21.5421C19.4594 21.0367 20.084 20.8615 20.8267 20.7715C21.8271 20.6502 23.2454 20.7974 24.4261 21.1449C24.9329 21.2941 25.1181 21.3604 25.7335 21.6134L26 21.723V21.457V21.1911L25.7161 21.0607C24.8596 20.6671 23.7744 20.3569 22.7861 20.223C21.3523 20.0288 20.2721 20.1693 18.7045 20.754C16.1778 21.6962 15.4674 21.8542 13.7641 21.8528C12.1065 21.8513 11.208 21.6392 8.6362 20.6423C6.71405 19.8972 6.03844 19.7291 4.82835 19.6951C4.39553 19.6829 3.89289 19.6945 3.71138 19.7207ZM4.01007 20.7235C2.78679 20.8398 1.25532 21.3795 0.220855 22.0589L0.00507713 22.2006V22.6277C0.00507713 23.0075 0.0145714 23.0509 0.0912361 23.0203C0.558332 22.8341 1.03426 22.7558 1.70592 22.7547C2.52796 22.7535 2.85863 22.836 3.6168 23.2316C4.33795 23.608 4.88359 23.8238 5.35978 23.921C5.94522 24.0405 6.33616 23.9833 7.34864 23.6296C8.36341 23.2751 8.85137 23.184 9.72779 23.1852C10.8259 23.1867 11.3381 23.3106 12.5145 23.8594C13.3124 24.2317 13.7891 24.3353 14.5003 24.2909C15.2819 24.2422 15.7058 24.1054 16.7342 23.5702C17.8367 22.9965 18.1108 22.9159 18.8406 22.951C19.6084 22.988 19.9639 23.1028 20.97 23.6388C22.264 24.3281 22.4452 24.3246 23.5392 23.5884C24.333 23.0542 24.5686 22.9676 25.213 22.9725C25.4923 22.9746 25.7836 23.0027 25.8604 23.0349L26 23.0935V22.6517V22.2098L25.5711 22.0233C24.1183 21.3913 22.3815 21.0721 21.0759 21.1969C20.2585 21.275 19.6793 21.4298 18.2517 21.9517C16.2563 22.6811 15.5897 22.829 14.1082 22.8704C12.2893 22.9214 11.4379 22.738 8.78852 21.7243C8.04853 21.4411 7.19176 21.1361 6.88459 21.0464C5.88024 20.7532 4.87979 20.6408 4.01007 20.7235ZM1.17282 23.2064C0.99131 23.2307 0.65429 23.3115 0.423941 23.3861L0.00507713 23.5216V23.8426C0.00507713 24.1505 0.00969732 24.1621 0.119313 24.129C0.92018 23.8867 1.00944 23.8718 1.68053 23.8687C2.53877 23.8647 2.7681 23.9262 3.81293 24.4411C4.89228 24.9728 5.22518 25.0737 5.89455 25.0718C6.40521 25.0704 6.46395 25.0578 7.29076 24.7718C8.50166 24.353 8.86686 24.2911 9.93087 24.3248C10.9858 24.3583 11.3565 24.4457 12.3154 24.8871C13.3308 25.3545 13.4703 25.3904 14.2718 25.3907C15.2364 25.3911 15.5453 25.3029 16.7019 24.697C17.802 24.1206 18.1487 24.018 18.8606 24.0581C19.4774 24.0929 20.068 24.2672 20.6623 24.59C21.9213 25.274 21.8185 25.2329 22.2654 25.2312C22.7323 25.2294 22.8732 25.1687 23.664 24.6292C24.2993 24.1957 24.5955 24.0879 25.1623 24.0835C25.4136 24.0816 25.7049 24.106 25.8096 24.1378L26 24.1955V23.8631V23.5307L25.7744 23.4717C25.4199 23.3789 24.8197 23.398 24.5332 23.5111C24.396 23.5653 24.0543 23.7678 23.7738 23.9613C22.9964 24.4972 22.8701 24.5461 22.2607 24.5465L21.7455 24.5469L20.8138 24.058C20.3013 23.7891 19.7466 23.534 19.5811 23.4913C19.0866 23.3635 18.5543 23.3404 18.1527 23.4291C17.781 23.5113 17.7185 23.5395 16.6489 24.1098C15.8085 24.5578 15.3337 24.6875 14.4191 24.7192C13.5637 24.7488 13.2043 24.6657 12.2296 24.2135C11.2126 23.7415 10.7098 23.6235 9.71804 23.6239C8.94281 23.6241 8.41997 23.7273 7.41008 24.0791L6.52919 24.386L5.89455 24.3874C5.12105 24.3889 4.83785 24.3086 3.76216 23.7825C2.52562 23.1777 2.09818 23.0826 1.17282 23.2064ZM0.995118 24.3446C0.93927 24.3572 0.693689 24.4294 0.449326 24.5051L0.00507713 24.6426V25.8213V27H13.0025H26V25.8381V24.6761L25.8604 24.6176C25.7836 24.5853 25.5349 24.5475 25.3078 24.5334C24.7601 24.4996 24.5029 24.5913 23.7735 25.0802C23.0498 25.5653 22.736 25.6937 22.2683 25.6959C21.8414 25.6981 21.5782 25.6011 20.773 25.1457C20.1006 24.7652 19.6594 24.6008 19.0965 24.5207C18.3839 24.4193 17.9298 24.5334 16.9826 25.0521C15.8329 25.6815 15.27 25.8447 14.2495 25.8441C13.4909 25.8437 13.1036 25.747 12.2664 25.3491C11.2597 24.8706 10.6832 24.7313 9.71144 24.7317C8.97947 24.7321 8.35605 24.8579 7.41769 25.1946L6.57997 25.4952L5.86917 25.4949C5.03073 25.4946 4.82942 25.4358 3.61243 24.8358C2.67753 24.375 2.42855 24.3078 1.68256 24.3156C1.36032 24.319 1.05097 24.332 0.995118 24.3446Z" fill="black"/>
</svg>
