<svg width="27" height="28" viewBox="0 0 27 28" fill="none" xmlns="http://www.w3.org/2000/svg">
<path fill-rule="evenodd" clip-rule="evenodd" d="M12.483 0.0254241C10.4821 0.217178 8.99392 0.640651 7.30906 1.49768C5.31317 2.51283 3.52219 4.11814 2.21629 6.06233C1.66336 6.88552 0.987686 8.2752 0.663257 9.25646C0.401391 10.0485 0.193377 10.9499 0.0662452 11.8434C-0.0220817 12.4644 -0.0220817 14.5486 0.0662452 15.1696C0.287459 16.7247 0.698472 18.0869 1.34062 19.3932C2.06714 20.8712 2.77877 21.8641 3.95363 23.039C5.11566 24.201 6.12406 24.9266 7.54664 25.6245C8.53924 26.1114 9.18013 26.3484 10.1864 26.6008C12.8269 27.2631 15.4752 27.1361 18.055 26.2235C18.837 25.9469 20.2021 25.2627 20.9039 24.7957C22.4817 23.7458 23.9302 22.261 24.9637 20.6339C25.344 20.0353 25.9551 18.7722 26.2044 18.0697C27.4447 14.5748 27.2288 10.8238 25.5988 7.54626C24.941 6.22357 24.2086 5.18693 23.1804 4.12294C22.0402 2.94296 20.9218 2.12885 19.4256 1.38961C17.8618 0.616946 16.4047 0.204507 14.674 0.0445889C14.1362 -0.00509177 12.9134 -0.0158093 12.483 0.0254241ZM14.9813 1.20931C19.7704 1.79772 23.7872 5.12569 25.2781 9.74044C25.9418 11.7951 26.0456 14.0816 25.572 16.2167C25.1847 17.9627 24.3194 19.766 23.1678 21.2273C22.7792 21.7204 21.7001 22.7996 21.207 23.1882C19.3859 24.6232 17.2364 25.5213 14.9243 25.813C13.7478 25.9614 12.0293 25.8704 10.7812 25.5935C9.54041 25.3183 8.06731 24.7177 6.99629 24.0506C5.91003 23.3738 4.53233 22.1557 3.80343 21.2273C2.36465 19.395 1.47335 17.2611 1.17923 14.9447C1.09512 14.2821 1.09534 12.732 1.17965 12.0546C1.39754 10.3042 2.0503 8.4508 2.97074 6.96878C3.87154 5.51838 5.37584 3.99026 6.79298 3.08593C7.66215 2.53126 8.71014 2.04111 9.73765 1.70855C10.6669 1.40788 11.5615 1.23919 12.7998 1.13133C13.1514 1.10071 14.4854 1.14839 14.9813 1.20931ZM19.3992 10.2104C19.3266 10.2597 17.8359 11.7282 16.0864 13.4738L12.9055 16.6474L11.0972 14.8418C10.0921 13.8383 9.22105 13.011 9.1361 12.9794C8.91842 12.8985 8.647 12.9992 8.51945 13.2084C8.39865 13.4066 8.391 13.5668 8.49326 13.7599C8.53476 13.8383 9.49173 14.8231 10.6199 15.9483C12.6466 17.9698 12.6735 17.9941 12.8858 17.9941C13.0402 17.9941 13.1588 17.9511 13.3066 17.8414C13.6522 17.585 20.1773 11.0073 20.2169 10.8753C20.2734 10.6873 20.2038 10.4219 20.0636 10.2901C19.8951 10.1319 19.5718 10.0931 19.3992 10.2104Z" fill="black"/>
</svg>
