<svg width="20" height="20" viewBox="0 0 20 20" fill="none" xmlns="http://www.w3.org/2000/svg">
<circle cx="10" cy="10" r="10" fill="#E03048"/>
<g clip-path="url(#clip0_13_21)">
<path d="M13.4934 10.032C13.3999 10.032 13.3102 9.99485 13.2441 9.92873C13.178 9.86261 13.1408 9.77293 13.1408 9.67943C13.1401 8.93161 12.8427 8.21464 12.3139 7.68585C11.7851 7.15706 11.0682 6.85966 10.3203 6.85892C10.2268 6.85892 10.1372 6.82177 10.071 6.75565C10.0049 6.68953 9.96777 6.59986 9.96777 6.50635C9.96777 6.41285 10.0049 6.32317 10.071 6.25705C10.1372 6.19093 10.2268 6.15379 10.3203 6.15379C11.2551 6.15481 12.1512 6.52659 12.8122 7.18756C13.4732 7.84852 13.8449 8.74469 13.846 9.67943C13.846 9.77293 13.8088 9.86261 13.7427 9.92873C13.6766 9.99485 13.5869 10.032 13.4934 10.032ZM12.4357 9.67943C12.4357 9.11839 12.2129 8.58034 11.8161 8.18363C11.4194 7.78691 10.8814 7.56404 10.3203 7.56404C10.2268 7.56404 10.1372 7.60119 10.071 7.66731C10.0049 7.73343 9.96777 7.8231 9.96777 7.91661C9.96777 8.01011 10.0049 8.09979 10.071 8.16591C10.1372 8.23203 10.2268 8.26917 10.3203 8.26917C10.6944 8.26917 11.0531 8.41775 11.3175 8.68223C11.582 8.9467 11.7306 9.30541 11.7306 9.67943C11.7306 9.77293 11.7677 9.86261 11.8339 9.92873C11.9 9.99485 11.9896 10.032 12.0832 10.032C12.1767 10.032 12.2663 9.99485 12.3325 9.92873C12.3986 9.86261 12.4357 9.77293 12.4357 9.67943ZM13.2054 13.968L13.5262 13.5982C13.7304 13.3933 13.8451 13.1159 13.8451 12.8266C13.8451 12.5373 13.7304 12.2599 13.5262 12.055C13.5153 12.0441 12.667 11.3915 12.667 11.3915C12.4634 11.1977 12.193 11.0898 11.9119 11.0902C11.6308 11.0906 11.3607 11.1992 11.1577 11.3936L10.4857 11.9598C9.93716 11.7328 9.43888 11.3997 9.01947 10.9795C8.60006 10.5594 8.26778 10.0605 8.04171 9.51161L8.60582 8.84174C8.80033 8.63872 8.90913 8.36855 8.90959 8.08739C8.91005 7.80623 8.80213 7.53571 8.60828 7.33206C8.60828 7.33206 7.95498 6.48485 7.94405 6.47392C7.7429 6.27146 7.47017 6.15626 7.18478 6.15323C6.8994 6.15019 6.62428 6.25956 6.41886 6.4577L6.01341 6.81026C3.61809 9.58917 8.7761 14.7073 11.6467 14.6153C11.9366 14.617 12.2238 14.5606 12.4915 14.4494C12.7592 14.3382 13.002 14.1746 13.2054 13.968Z" fill="white"/>
</g>
<defs>
<clipPath id="clip0_13_21">
<rect width="8.46154" height="8.46154" fill="white" transform="translate(5.38452 6.15385)"/>
</clipPath>
</defs>
</svg>
