<svg width="44" height="44" viewBox="0 0 44 44" fill="none" xmlns="http://www.w3.org/2000/svg">
<path fill-rule="evenodd" clip-rule="evenodd" d="M20.4884 0.0204771C15.245 0.410891 10.4413 2.54833 6.70536 6.15349C3.09169 9.64075 0.886016 13.9944 0.152883 19.0873C-0.0509609 20.5035 -0.0509609 23.429 0.152883 24.8452C0.735023 28.8892 2.19459 32.3515 4.66331 35.5444C5.35528 36.4393 7.32497 38.4303 8.1993 39.1186C9.93962 40.4886 12.4494 41.9122 14.3009 42.5793C22.3731 45.488 31.0884 43.6603 37.1921 37.7788C42.4746 32.6885 44.8332 25.4636 43.5953 18.1638C43.1132 15.321 41.9039 12.2944 40.2729 9.84906C36.7025 4.49584 31.2743 1.08877 24.8712 0.181868C23.9553 0.0521021 21.351 -0.0437182 20.4884 0.0204771ZM23.1938 14.0132C23.7744 14.1481 24.0514 14.3252 24.2428 14.6838C24.3754 14.9324 24.3918 15.2905 24.395 18.0131C24.3982 20.7592 24.4136 21.0916 24.5498 21.3406C24.8902 21.9632 25.2865 21.8966 26.0323 21.0909C26.9661 20.0823 28.4204 17.595 29.2541 15.5809C29.4158 15.1901 29.6149 14.8558 29.7314 14.7795C29.8989 14.6697 30.3929 14.6462 32.7963 14.6336C35.4094 14.6199 35.682 14.632 35.8952 14.771C36.0957 14.9017 36.129 14.9818 36.129 15.3341C36.129 16.1274 35.3142 17.522 33.3199 20.1421C31.4943 22.5407 31.3298 22.8685 31.6455 23.4805C31.74 23.6639 32.4512 24.4333 33.2258 25.1905C35.7816 27.6884 36.5551 28.9351 35.9493 29.5801C35.578 29.9753 35.1072 30.0408 32.591 30.0473C30.2805 30.0532 30.2764 30.0529 29.793 29.8316C29.1367 29.5312 28.7206 29.1737 27.6561 27.9955C26.6648 26.8985 26.0717 26.3821 25.7115 26.3023C25.0992 26.1667 24.597 26.9147 24.4398 28.1967C24.2869 29.443 24.2741 29.4981 24.1018 29.654C23.6771 30.0384 22.6684 30.1339 20.925 29.955C19.367 29.7952 17.7248 29.1901 16.3555 28.2714C14.0938 26.754 11.6072 23.3391 9.06331 18.2569C7.80699 15.7471 7.63864 15.3216 7.77339 14.9961C7.83166 14.8554 7.97878 14.7214 8.13433 14.6671C8.2946 14.6113 9.2901 14.5756 10.6916 14.5756C12.9358 14.5756 12.9928 14.5799 13.2761 14.771C13.4356 14.8783 13.6132 15.062 13.6709 15.1792C13.7285 15.2962 14.0999 16.0688 14.4961 16.8959C15.5108 19.014 16.7001 20.896 17.3917 21.478C17.9436 21.9424 18.3558 21.8886 18.6075 21.3197C19.0364 20.3502 19.0215 16.851 18.5848 15.971C18.3649 15.5279 17.9841 15.2269 17.4676 15.0877C17.0864 14.9851 17.0714 14.9397 17.3162 14.6285C17.7122 14.1251 18.2454 13.9689 19.8438 13.8881C21.33 13.813 22.5248 13.8576 23.1938 14.0132Z" fill="white"/>
</svg>
