<svg width="44" height="44" viewBox="0 0 44 44" fill="none" xmlns="http://www.w3.org/2000/svg">
<path fill-rule="evenodd" clip-rule="evenodd" d="M19.909 0.0534192C13.0223 0.769447 6.9921 4.51387 3.32563 10.3507C-0.86128 17.0162 -1.11393 25.6546 2.67645 32.5517C4.39906 35.6864 6.8699 38.3687 9.91566 40.4108C11.966 41.7855 15.078 43.0865 17.4595 43.5647C19.2969 43.9335 19.9972 44.0004 22.0164 44C24.0501 43.9996 24.8834 43.92 26.5958 43.5628C34.1695 41.9828 40.4877 36.3138 42.9272 28.9096C43.7147 26.5191 44 24.6831 44 22.0042C44 19.4137 43.7288 17.5908 43.0074 15.3313C41.9353 11.9737 40.165 9.05878 37.6545 6.51825C34.2145 3.03687 29.9684 0.894295 25.0712 0.168796C24.0156 0.0123484 20.9604 -0.0558447 19.909 0.0534192ZM23.8665 6.88651C26.1655 7.50713 27.9294 8.94513 28.9445 11.0261C29.5373 12.2416 29.714 13.0334 29.7129 14.4702C29.7122 15.3681 29.6712 15.8294 29.5522 16.2784C28.851 18.925 26.9986 20.912 24.4106 21.7938C22.6907 22.3799 20.5701 22.2789 18.8819 21.5303C17.0999 20.7401 15.5035 19.0724 14.8025 17.2686C14.3946 16.2187 14.3143 15.7365 14.3224 14.3841C14.3292 13.2453 14.3572 13.0032 14.5594 12.3364C15.4324 9.45787 17.6266 7.43248 20.5535 6.80368C21.2798 6.64757 23.1552 6.6945 23.8665 6.88651ZM20.9858 10.7712C19.2585 11.2559 18.135 12.8633 18.2517 14.6833C18.3241 15.8124 18.8414 16.7792 19.738 17.4608C20.4513 18.0032 20.9712 18.1635 22.0164 18.1635C22.7445 18.1635 23.0117 18.1269 23.3932 17.9749C24.3442 17.5961 25.1854 16.7539 25.5611 15.8048C25.8296 15.1261 25.8327 13.8141 25.5674 13.1046C25.2004 12.1231 24.3403 11.2517 23.369 10.8776C22.7676 10.646 21.6156 10.5945 20.9858 10.7712ZM15.6484 22.3761C15.8614 22.4852 16.3029 22.7408 16.6294 22.944C17.4004 23.4235 18.413 23.8538 19.4343 24.1358C20.1926 24.3452 20.3808 24.3618 22.0164 24.3633C23.6539 24.3649 23.8397 24.3489 24.6074 24.1398C25.7162 23.8377 26.7464 23.3843 27.6197 22.8142C28.803 22.0417 29.4596 21.9391 30.2565 22.402C30.9218 22.7886 31.364 23.8664 31.1501 24.5806C31.0377 24.956 30.1647 25.8345 29.3739 26.3681C28.0095 27.2886 26.0952 27.9634 24.2734 28.1662C23.9765 28.1992 23.7113 28.2624 23.684 28.3065C23.6566 28.3508 24.9894 29.7502 26.6457 31.4165C29.1686 33.9547 29.6723 34.5019 29.7516 34.7904C29.8879 35.2865 29.867 35.5992 29.6681 36.0389C29.3452 36.7527 28.7577 37.1964 27.9973 37.3007C27.2505 37.4031 27.0835 37.2793 24.5555 34.7483C22.9345 33.1253 22.176 32.4226 22.0449 32.4226C21.9138 32.4226 21.1605 33.1211 19.5488 34.7371C17.0213 37.2714 16.8449 37.4004 16.0331 37.3089C15.1049 37.2042 14.2716 36.2881 14.2716 35.3726C14.2716 35.1204 14.3315 34.77 14.4046 34.5939C14.4939 34.379 15.515 33.2941 17.5103 31.2939C20.5614 28.2352 20.5867 28.2036 19.9791 28.2036C19.5881 28.2036 18.0302 27.8587 17.1974 27.5879C15.8726 27.1571 14.9852 26.6683 13.8246 25.73C13.202 25.2268 12.8087 24.6004 12.8087 24.1122C12.8087 23.332 13.4736 22.3805 14.1498 22.1928C14.606 22.0663 15.1813 22.1366 15.6484 22.3761Z" fill="white"/>
</svg>
